<?xml version="1.0" encoding="utf-8"?>
<!-- Generator: Adobe Illustrator 27.5.0, SVG Export Plug-In . SVG Version: 6.00 Build 0)  -->
<svg version="1.1" id="Layer_1" xmlns="http://www.w3.org/2000/svg" xmlns:xlink="http://www.w3.org/1999/xlink" x="0px" y="0px"
	 viewBox="0 0 4000 4000" style="enable-background:new 0 0 4000 4000;" xml:space="preserve">
<g>
	<g>
		<rect style="fill:transparent;" width="4000" height="4000"/>
	</g>
	<g>
		<g>
			<g>
				<g>
					<path style="fill:#000072;" d="M1800.175,848.577l-380.101-11.858c-2.512-0.078-4.485-2.178-4.406-4.69
						c0.075-2.412,2.028-4.326,4.406-4.407l380.101-11.858c9.061-0.283,16.635,6.833,16.918,15.893
						c0.283,9.063-6.833,16.636-15.894,16.919C1800.871,848.586,1800.498,848.586,1800.175,848.577z"/>
				</g>
				<g>
					<path style="fill:#000072;" d="M1298.209,1375.859l-380.101-11.858c-2.512-0.078-4.485-2.178-4.406-4.69
						c0.075-2.412,2.029-4.326,4.406-4.407l380.101-11.855c9.061-0.283,16.635,6.833,16.918,15.894
						c0.283,9.06-6.833,16.636-15.894,16.917C1298.905,1375.872,1298.532,1375.869,1298.209,1375.859z"/>
				</g>
				<g>
					<path style="fill:#000072;" d="M1069.415,2213.13l-380.1-11.855c-2.512-0.081-4.485-2.18-4.406-4.692
						c0.075-2.41,2.029-4.326,4.406-4.404l380.1-11.858c9.061-0.283,16.635,6.833,16.918,15.894
						c0.283,9.06-6.833,16.636-15.894,16.917C1070.111,2213.142,1069.738,2213.14,1069.415,2213.13z"/>
				</g>
				<g>
					<path style="fill:#000072;" d="M1069.415,2756.028l-380.1-11.858c-2.512-0.078-4.485-2.178-4.406-4.69
						c0.075-2.412,2.029-4.326,4.406-4.407l380.1-11.858c9.061-0.283,16.635,6.833,16.918,15.894
						c0.283,9.063-6.833,16.636-15.894,16.919C1070.111,2756.038,1069.738,2756.038,1069.415,2756.028z"/>
				</g>
			</g>
			<g>
				<g>
					<path style="fill:#AFAFC6;" d="M2817.764,2121.312c-0.273,3.937-0.656,7.984-1.258,11.976
						c-5.578,40.906-27.398,80.389-98.272,43.312l-156.842,14.766c0,0-23.242,2.897-58.023,5.359
						c-73.281,5.14-198.021,8.366-264.958-21.765l-6.015-306.903l72.405,32.867l89.085,37.57l77.491,32.703
						c14.82,6.289,30.351,10.719,46.156,13.234c10.554,1.695,21.218,2.57,31.937,2.57h129.115c19.359,0,38.226,6.453,53.539,18.375
						l51.679,40.195C2807.046,2063.617,2819.788,2091.999,2817.764,2121.312z"/>
				</g>
				<g>
					<path style="fill:#F5F5F5;" d="M2817.764,2121.312c-3.063,44.46-21.71,95.974-99.53,55.288l-156.842,14.766
						c0,0-23.242,2.897-58.023,5.359c-62.945-83.288-10.226-177.186,14.164-212.295c10.554,1.695,21.218,2.57,31.937,2.57h129.115
						c19.359,0,38.226,6.453,53.539,18.375l51.679,40.195C2807.046,2063.617,2819.788,2091.999,2817.764,2121.312z"/>
				</g>
				<g style="opacity:0.2;">
					<path style="fill:#000072;" d="M2816.507,2133.288c-5.578,40.906-27.398,80.389-98.272,43.312l-156.842,14.766
						c0,0-23.242,2.897-58.023,5.359c-73.281,5.14-198.021,8.366-264.958-21.765l-6.015-306.903l72.405,32.867l89.085,37.57
						l-2.242,3.391c0,0-76.507,154.107,120.366,175.052c0,0,141.201-64.695,268.403-4.594
						C2793.976,2118.74,2805.952,2125.795,2816.507,2133.288z"/>
				</g>
				<g>
					<path style="fill:#000072;" d="M2413.594,2216.537c-64.476,0-135.552-5.769-181.925-26.626
						c-8.263-3.719-11.949-13.43-8.232-21.692c3.718-8.264,13.429-11.948,21.692-8.235c93.351,41.987,312.029,15.381,314.224,15.11
						l157.343-14.829c3.149-0.295,6.327,0.325,9.138,1.794c17.056,8.911,40.433,17.837,54.935,9.719
						c11.462-6.416,18.788-24.739,20.63-51.592c1.637-23.892-8.701-46.95-27.657-61.682l-51.71-40.195
						c-12.362-9.609-27.795-14.902-43.457-14.902h-129.076c-29.182,0-57.611-5.752-84.498-17.092l-166.587-70.276
						c-8.348-3.523-12.261-13.145-8.739-21.494c3.521-8.345,13.142-12.251,21.493-8.74l166.587,70.276
						c22.828,9.631,46.968,14.514,71.744,14.514h129.076c22.917,0,45.503,7.744,63.594,21.807l51.71,40.195
						c27.593,21.445,42.642,55.029,40.255,89.836c-2.7,39.385-15.261,65.62-37.335,77.976c-21.006,11.76-48.494,9.387-81.758-7.031
						l-152.12,14.328C2558.103,2208.312,2490.554,2216.535,2413.594,2216.537z"/>
				</g>
				<g>
					<path style="fill:#AFAFC6;" d="M1410.508,2431.002h-167.123c-80.171-4.211-125.124-80.17-149.35-147.709
						c-15.367-42.875-24.062-87.882-26.96-133.38c-7.656-121.569-47.085-190.311-106.694-225.419
						c-41.289-24.336-92.257-32.484-149.131-30.899c-88.155-0.109-144.1-83.561-83.507-158.099
						c13.289-16.351,30.296-29.149,49.273-37.952c7.875-3.719,16.078-6.672,24.5-8.969c89.304-24.062,179.592-18.867,254.841,17.828
						c0.054,0,0.054,0,0.054,0c108.335,52.773,185.443,170.732,183.42,360.332c1.313,80.717,17.937,140.819,52.062,177.405
						c16.406,17.664,36.914,29.859,61.796,36.257l52.554,139.232L1410.508,2431.002z"/>
				</g>
				<g style="opacity:0.6;">
					<path style="fill:#F5F5F5;" d="M1332.743,2273.177c-75.194-11.594-98.819-62.179-105.655-84.273c0-0.055,0-0.11-0.055-0.163
						c-0.875-3.336-1.695-6.728-2.461-10.227c-5.742-25.812-8.805-55.289-9.351-88.101c2.023-189.599-75.085-307.559-183.42-360.331
						c0,0,0,0-0.054,0c-75.249-36.695-165.537-41.89-254.841-17.828c-8.422,2.296-16.625,5.25-24.5,8.968
						c-8.914,4.156-17.445,9.188-25.32,15.094c0.219-0.273,0.438-0.546,0.656-0.82c13.289-16.351,30.296-29.149,49.273-37.952
						c7.875-3.719,16.078-6.672,24.5-8.969c89.304-24.062,179.592-18.867,254.841,17.828c0.054,0,0.054,0,0.054,0
						c108.335,52.773,185.443,170.732,183.42,360.332c1.313,80.717,17.937,140.819,52.062,177.405
						C1303.431,2256.552,1317.048,2266.287,1332.743,2273.177z"/>
				</g>
				<g>
					<path style="fill:#F5F5F5;" d="M960.381,1924.494c-41.289-24.336-92.257-32.484-149.131-30.899
						c-88.155-0.109-144.1-83.561-83.507-158.099c18.758-23.132,45.007-39.156,73.772-46.922
						c89.304-24.062,179.592-18.867,254.841,17.828C1052.802,1706.621,933.092,1716.136,960.381,1924.494z"/>
				</g>
				<g style="opacity:0.2;">
					<path style="fill:#000072;" d="M1406.243,2419.627c-4.648,3.884-9.461,7.712-14.328,11.375h-148.53
						c-80.171-4.211-125.124-80.17-149.35-147.709c-15.367-42.875-24.062-87.882-26.96-133.38
						c-7.656-121.569-47.085-190.311-106.694-225.419c-41.289-24.336-92.257-32.484-149.131-30.899
						c-88.155-0.109-144.1-83.561-83.507-158.099c13.289-16.351,30.296-29.149,49.273-37.952
						c-1.148,2.734-40.632,99.639,79.843,115.826c122.116,16.406,238.763,40.195,267.965,186.865
						c29.148,146.725,20.672,277.263,167.068,243.904c16.406,17.664,36.914,29.859,61.796,36.257L1406.243,2419.627z"/>
				</g>
				<g>
					<path style="fill:#000072;" d="M1410.494,2447.399h-167.125c-0.286,0-0.573-0.008-0.858-0.022
						c-71.378-3.738-128.057-58.552-163.909-158.521c-15.431-43.02-24.81-89.419-27.876-137.905
						c-10.813-170.959-84.451-245.254-239.002-240.977c-52.231-0.029-96.512-25.544-116.03-66.58
						c-18.016-37.878-10.983-80.986,19.298-118.269c20.272-24.961,49.492-43.572,82.277-52.402
						c119.16-32.087,236.052-12.886,320.713,52.703c64.181,49.719,140.264,149.326,138.239,341.499
						c1.885,115.708,35.104,180.474,101.554,197.563c8.776,2.256,14.06,11.199,11.803,19.976
						c-2.257,8.779-11.2,14.065-19.974,11.802c-81.606-20.984-124.063-98.115-126.191-229.248
						c1.489-141.885-41.917-250.884-125.525-315.654c-76.471-59.241-182.928-76.357-292.084-46.956
						c-26.177,7.051-49.382,21.755-65.341,41.404c-22.306,27.466-27.682,57.114-15.137,83.489
						c13.818,29.05,47.557,47.842,85.955,47.869c80.588-2.224,141.529,15.261,185.845,53.547
						c51.639,44.617,79.884,115.977,86.348,218.164c2.872,45.41,11.625,88.779,26.016,128.899
						c21.597,60.222,62.421,132.776,134.326,136.807h166.68c9.061,0,16.406,7.346,16.406,16.406
						S1419.555,2447.399,1410.494,2447.399z"/>
				</g>
				<g>
					<g>
						<g>
							<path style="fill:#B0B7E2;" d="M2749.485,2594.449c-3.82-0.426-7.823-0.083-11.768,1.089l-61.985,18.274l-16.819-97.404
								c25.394-3.401,53.923-7.284,75.115-10.254L2749.485,2594.449z"/>
						</g>
						<g>
							<path style="fill:#B0B7E2;" d="M2793.476,2704.093c-35.854,7.615-85.02,18.093-126.276,26.859l-14.248-82.064
								c-2.667-15.344,6.604-30.262,21.547-34.699l1.234-0.378l61.985-18.274c3.945-1.172,7.948-1.515,11.768-1.089
								c12.967,1.302,24.321,10.889,27.021,24.533L2793.476,2704.093z"/>
						</g>
					</g>
					<g>
						<circle style="fill:#9DA0C6;" cx="2662.62" cy="2131.237" r="71.776"/>
					</g>
					<g>
						<path style="fill:#000072;" d="M2662.62,2217.583c-47.61,0-86.344-38.736-86.344-86.345s38.734-86.345,86.344-86.345
							s86.344,38.735,86.344,86.345S2710.23,2217.583,2662.62,2217.583z M2662.62,2074.028c-31.545,0-57.208,25.664-57.208,57.209
							c0,31.546,25.663,57.209,57.208,57.209s57.208-25.664,57.208-57.209C2719.829,2099.692,2694.166,2074.028,2662.62,2074.028z"
							/>
					</g>
					<g>
						<path style="fill:#9DA0C6;" d="M2706.305,2288.798c0,0-9.63-57.631-13.675-83.68c-1.186-7.64-1.267-15.391-0.26-23.057
							l3.729-28.353c2.045-15.552-5.536-31.165-19.568-38.176c-9.731-4.862-20.396-4.758-32.804,4.619
							c-9.12,6.892-15.037,17.242-16.921,28.517l-6.565,39.292c-2.532,15.156-2.5,30.631,0.095,45.777l14.844,86.619"/>
					</g>
					<g>
						<path style="fill:#000072;" d="M2635.163,2334.926c-6.965,0-13.125-5.012-14.341-12.109l-14.843-86.619
							c-2.878-16.792-2.915-33.828-0.107-50.637l6.565-39.292c2.556-15.3,10.549-28.704,22.507-37.739
							c19.789-14.958,37.078-11.538,48.097-6.03c19.355,9.671,30.406,31.013,27.501,53.108l-3.729,28.352
							c-0.829,6.311-0.758,12.678,0.211,18.921c3.986,25.669,13.552,82.942,13.649,83.518c1.326,7.935-4.032,15.442-11.968,16.768
							c-7.949,1.33-15.444-4.031-16.77-11.968c-0.096-0.576-9.69-58.013-13.701-83.848c-1.394-8.979-1.498-18.127-0.308-27.188
							l3.729-28.354c1.287-9.783-3.39-19.126-11.636-23.245c-3.861-1.929-8.717-3.433-17.51,3.208
							c-5.901,4.461-10.032,11.494-11.335,19.297l-6.565,39.292c-2.269,13.582-2.24,27.349,0.085,40.916l14.843,86.619
							c1.36,7.929-3.967,15.461-11.897,16.819C2636.809,2334.858,2635.98,2334.926,2635.163,2334.926z"/>
					</g>
					<g style="opacity:0.3;">
						<g>
							<path style="fill:#462B5B;" d="M2716.246,2601.883l-11.363,3.35l-29.135,8.595l-15.976-92.262
								c14.907-1.991,29.33-3.981,41.421-5.681L2716.246,2601.883z"/>
						</g>
						<g style="opacity:0.2;">
							<path style="fill:#000072;" d="M2760.095,2711.189c-29.815,6.361-63.369,13.499-92.893,19.763l-14.228-82.064
								c-2.622-15.053,6.215-29.67,20.637-34.428c0.291-0.097,0.583-0.194,0.874-0.292l1.263-0.34l29.135-8.595l11.363-3.35
								l0.388,2.282c12.965,1.311,24.328,10.877,27.047,24.522L2760.095,2711.189z"/>
						</g>
					</g>
					<g>
						<g>
							<path style="fill:#462B5B;" d="M2675.732,2628.378c-2.693,0-5.363-0.747-7.695-2.2c-3.529-2.195-5.952-5.793-6.66-9.89
								l-16.819-97.402c-0.674-3.901,0.27-7.907,2.614-11.099c2.343-3.193,5.884-5.293,9.808-5.818
								c25.364-3.396,53.86-7.278,75.027-10.244c7.786-1.074,15.02,4.182,16.372,11.914l15.457,88.296
								c0.791,4.517-0.592,9.143-3.732,12.485c-3.14,3.345-7.673,5.02-12.228,4.504c-1.963-0.212-3.988-0.027-6.011,0.576
								l-62.013,18.281C2678.5,2628.183,2677.113,2628.378,2675.732,2628.378z M2675.842,2528.833l11.462,66.379l45.194-13.325
								l-10.393-59.368C2707.8,2524.499,2691.618,2526.703,2675.842,2528.833z"/>
						</g>
						<g>
							<path style="fill:#000072;" d="M2667.2,2745.519c-2.887,0-5.734-0.859-8.163-2.502c-3.279-2.217-5.513-5.674-6.19-9.573
								l-14.248-82.063c-3.932-22.619,9.718-44.612,31.752-51.157l1.106-0.34l62.14-18.32c5.745-1.709,11.642-2.256,17.499-1.594
								c19.797,1.99,35.813,16.535,39.701,36.184l16.965,85.09c1.56,7.822-3.458,15.442-11.26,17.1l-126.274,26.858
								C2669.224,2745.414,2668.21,2745.519,2667.2,2745.519z M2746.292,2608.844c-1.5,0-2.964,0.222-4.427,0.657l-63.091,18.613
								c-7.994,2.375-12.87,10.217-11.469,18.279l11.66,67.163l97.412-20.72l-14.158-71.006
								c-1.365-6.895-7.198-12.185-14.192-12.888C2747.443,2608.876,2746.865,2608.844,2746.292,2608.844z"/>
						</g>
					</g>
					<g>
						<path style="fill:#8A90B2;" d="M2765.492,2614.77c-116.542,27.63-195.061-102.314-178.163-207.104
							c9.809-60.99,51.909-113.482,137.616-121.446v0.049l26.805,217.01L2765.492,2614.77z"/>
					</g>
					<g style="opacity:0.55;">
						<path style="fill:#F7F7F7;" d="M2765.492,2614.77c-1.311,0.291-2.622,0.631-3.933,0.923l-9.858-80.025l-26.804-217.01v-0.049
							c-85.708,7.964-127.808,60.456-137.617,121.446c-0.68,4.225-1.214,8.498-1.603,12.82c-1.214-15.199-0.728-30.447,1.652-45.208
							c9.809-60.99,51.909-113.482,137.616-121.446v0.049l26.805,217.01L2765.492,2614.77z"/>
					</g>
					<g>
						<path style="fill:#000072;" d="M2733.776,2633.171c-42.2,0-81.079-18.792-111.971-54.771
							c-49.518-57.668-65.383-144.226-38.582-210.493c22.528-55.701,72.374-89.856,140.356-96.169
							c8.013-0.767,15.109,5.144,15.853,13.157c0.743,8.01-5.148,15.11-13.158,15.852c-72.534,6.738-103.14,46.182-116.042,78.083
							c-22.522,55.686-8.359,131.636,33.677,180.591c18.439,21.472,58.311,55.388,118.214,41.199
							c7.832-1.863,15.679,2.991,17.533,10.818c1.854,7.83-2.99,15.679-10.819,17.532
							C2756.97,2631.781,2745.247,2633.171,2733.776,2633.171z"/>
					</g>
					<g>
						<path style="fill:#00A8FF;" d="M2876.692,2479.97c-3.253,43.072-17.53,86.095-44.286,120.669
							c-36.565-30.107-58.319-63.369-70.265-96.584c-0.534-1.554-1.068-3.108-1.603-4.71c0-0.097-0.049-0.146-0.049-0.243
							c-5.584-16.85-8.692-33.603-9.906-49.918c-6.604-84.784,35.982-156.651,35.982-156.651
							C2849.5,2316.715,2882.86,2398.342,2876.692,2479.97z"/>
					</g>
					<g style="opacity:0.55;">
						<path style="fill:#F7F7F7;" d="M2876.692,2479.97c-2.768,36.953-13.693,73.858-33.651,105.421
							c10.101-23.843,15.927-49.433,17.87-75.072c6.118-81.094-26.755-162.236-88.96-186.952
							c7.769-19.278,14.616-30.835,14.616-30.835C2849.5,2316.715,2882.86,2398.342,2876.692,2479.97z"/>
					</g>
					<g>
						<path style="fill:#B0B7E2;" d="M2832.407,2600.639c-13.645,13.888-29.281,21.754-47.54,21.414
							c-7.089-0.146-13.838-2.865-19.375-7.284c-37.779-29.961-62.543-72.062-73.809-126.642c-1.311-6.264-2.428-12.674-3.35-19.278
							c-6.459-55.406,0.971-107.849,20.103-151.552c0-0.049,0-0.049,0.049-0.049c4.759-10.926,10.247-21.269,16.462-30.981
							c1.991-3.205,4.127-6.361,6.313-9.42c25.154-16.122,42.052-6.07,55.309,15.685c-7.284,8.692-13.402,18.355-18.404,28.747
							c-18.113,37.099-22.628,83.473-17.578,127.905c1.942,17.141,5.293,34.04,9.906,49.918c0,0.097,0.049,0.146,0.049,0.243
							c0.437,1.602,0.923,3.156,1.408,4.71C2776.661,2552.08,2802.398,2590.539,2832.407,2600.639z"/>
					</g>
					<g style="opacity:0.55;">
						<path style="fill:#F7F7F7;" d="M2786.567,2292.532c-7.284,8.692-13.402,18.355-18.404,28.747
							c-0.049,0-0.049-0.048-0.049-0.048c-22.725-32.438-49.433-13.402-59.631-3.982c4.759-10.926,10.247-21.269,16.462-30.981
							c1.991-3.205,4.127-6.361,6.313-9.42C2756.412,2260.726,2773.311,2270.778,2786.567,2292.532z"/>
					</g>
					<g style="opacity:0.2;">
						<path style="fill:#000072;" d="M2876.692,2479.97c-3.253,43.072-17.53,86.095-44.286,120.669
							c-13.645,13.888-29.281,21.754-47.54,21.414c-7.089-0.146-13.838-2.865-19.375-7.284
							c-116.542,27.63-195.061-102.314-178.163-207.104c19.035,23.551,54.289,59.727,104.353,80.462
							c18.112,7.527,38.167,13.014,60.067,15.15c3.351,0.34,6.75,0.583,10.197,0.777h0.195
							C2796.133,2505.707,2834.398,2499.199,2876.692,2479.97z"/>
					</g>
					<g>
						<path style="fill:#000072;" d="M2785.968,2636.625c-0.461,0-0.919-0.005-1.382-0.012c-9.944-0.183-19.948-3.879-28.169-10.415
							c-45.182-35.915-72.939-88.159-82.506-155.281c-8.998-77.129,7.175-148.923,45.493-202.524
							c1.074-1.504,2.426-2.791,3.982-3.789c14.048-9.014,27.583-12.114,40.242-9.187c13.61,3.142,25.178,12.81,35.365,29.558
							c3.245,5.334,2.728,12.146-1.283,16.931c-42.866,51.125-39.548,135.178-23.68,191.621
							c13.593,48.354,38.33,84.973,63.02,93.291c4.753,1.602,8.35,5.537,9.517,10.415c1.168,4.878-0.256,10.015-3.77,13.594
							C2825.993,2627.951,2806.878,2636.625,2785.968,2636.625z M2741.429,2287.719c-32.892,47.458-46.603,111.047-38.625,179.456
							c8.431,59.136,32.585,105.088,71.742,136.216c3.237,2.573,6.992,4.026,10.571,4.092c7.292,0.097,14.137-1.465,20.759-4.839
							c-25.334-19.021-46.887-54.958-59.895-101.23c-16.929-60.217-20.441-149.272,22.494-209.309
							c-3.879-4.661-7.695-7.441-11.4-8.298C2752.868,2282.834,2747.614,2284.15,2741.429,2287.719z"/>
					</g>
					<g>
						<path style="fill:#000072;" d="M2832.388,2615.192c-3.115,0-6.252-0.994-8.906-3.047c-6.364-4.924-7.528-14.075-2.604-20.437
							c39.082-50.493,52.325-126.079,33.738-192.559c-12.908-46.167-39.623-80.066-73.296-93.005
							c-7.51-2.886-11.259-11.313-8.373-18.823s11.306-11.26,18.824-8.374c42.357,16.277,75.491,57.229,90.903,112.356
							c20.983,75.046,5.769,160.71-38.757,218.237C2841.048,2613.249,2836.74,2615.192,2832.388,2615.192z"/>
					</g>
					<g>
						<polygon style="fill:#A55EEA;" points="1787.376,2794.276 1245.215,2760.624 1159.508,2755.283 1159.508,2566.048 
							1732.796,2566.048 						"/>
					</g>
					<g style="opacity:0.2;">
						<path style="fill:#000072;" d="M1787.376,2794.276l-542.161-33.651c-12.625-36.419-4.176-64.826,36.711-76.432
							c173.89-49.385,117.416-118.144,117.416-118.144h333.455L1787.376,2794.276z"/>
					</g>
					<g>
						<path style="fill:#462B5B;" d="M1787.368,2808.844c-0.3,0-0.602-0.01-0.904-0.029l-627.871-39.011
							c-7.679-0.476-13.664-6.843-13.664-14.539v-189.216c0-8.045,6.522-14.568,14.568-14.568c8.046,0,14.568,6.523,14.568,14.568
							v175.525l594.554,36.941l-50.006-209.077c-1.872-7.825,2.954-15.686,10.779-17.556c7.828-1.873,15.685,2.957,17.557,10.779
							l54.586,228.228c1.075,4.492-0.044,9.226-3.016,12.764C1795.74,2806.955,1791.654,2808.844,1787.368,2808.844z"/>
					</g>
					<g>
						<g>
							<path style="fill:#8A90B2;" d="M1443.514,2708.472c-218.564,0-395.756,177.192-395.756,395.756
								c0,218.564,177.192,395.756,395.756,395.756s395.756-177.192,395.756-395.756
								C1839.27,2885.664,1662.078,2708.472,1443.514,2708.472z M1443.514,3342.992c-131.838,0-238.716-106.878-238.716-238.765
								c0-131.837,106.878-238.716,238.716-238.716c131.886,0,238.765,106.878,238.765,238.716
								C1682.278,3236.114,1575.4,3342.992,1443.514,3342.992z"/>
						</g>
						<g style="opacity:0.2;">
							<path style="fill:#000072;" d="M1485.177,3455.941c-218.564,0-395.756-177.192-395.756-395.756
								c0-94.447,33.117-181.222,88.377-249.253c-79.88,72.401-130.041,176.998-130.041,293.296
								c0,218.564,177.192,395.756,395.756,395.756c124.068,0,234.831-57.105,307.427-146.502
								C1680.676,3417.142,1587.491,3455.941,1485.177,3455.941z"/>
						</g>
						<g style="opacity:0.2;">
							<path style="fill:#000072;" d="M1443.513,2794.978c-51.861,0-100.713,12.74-143.596,35.31l-8.476-36.012l-53.917,32.952
								l-43.786,38.77c0,0,22.018-1.505,44.689,6.821c-63.898,56.626-104.174,139.333-104.174,231.418
								c0,170.831,138.48,309.311,309.26,309.311c170.83,0,309.31-138.48,309.31-309.311
								C1752.823,2933.458,1614.343,2794.978,1443.513,2794.978z M1443.513,3350.854c-136.173,0-246.566-110.393-246.566-246.616
								c0-74.932,33.404-142.041,86.168-187.231c7.222-6.219,14.846-12.037,22.771-17.354c39.322-26.532,86.669-41.98,137.627-41.98
								c136.223,0,246.616,110.393,246.616,246.565C1690.129,3240.461,1579.736,3350.854,1443.513,3350.854z"/>
						</g>
						<g style="opacity:0.55;">
							<path style="fill:#F7F7F7;" d="M1443.514,2708.472c-108.966,0-207.59,43.995-279.166,115.231
								c67.983-55.066,154.563-88.038,248.865-88.038c218.564,0,395.756,177.192,395.756,395.756
								c0,109.646-44.578,208.852-116.59,280.525c89.592-72.547,146.891-183.456,146.891-307.719
								C1839.27,2885.664,1662.078,2708.472,1443.514,2708.472z"/>
						</g>
						<g>
							<path style="fill:#000072;" d="M1443.53,3357.56c-139.679,0-253.317-113.638-253.317-253.315
								c0-139.68,113.638-253.318,253.317-253.318s253.317,113.638,253.317,253.318
								C1696.847,3243.923,1583.209,3357.56,1443.53,3357.56z M1443.53,2880.063c-123.615,0-224.181,100.566-224.181,224.182
								c0,123.613,100.566,224.179,224.181,224.179s224.181-100.566,224.181-224.179
								C1667.711,2980.629,1567.144,2880.063,1443.53,2880.063z"/>
						</g>
						<g>
							
								<ellipse transform="matrix(0.7071 -0.7071 0.7071 0.7071 -1772.2319 1929.9418)" style="fill:#B0B7E2;" cx="1443.53" cy="3104.244" rx="153.751" ry="153.751"/>
						</g>
						<g>
							<path style="fill:#000072;" d="M1443.53,3272.563c-92.811,0-168.319-75.508-168.319-168.318
								c0-92.813,75.508-168.321,168.319-168.321c92.811,0,168.319,75.508,168.319,168.321
								C1611.849,3197.055,1536.341,3272.563,1443.53,3272.563z M1443.53,2965.06c-76.746,0-139.183,62.439-139.183,139.185
								c0,76.745,62.438,139.182,139.183,139.182c76.746,0,139.183-62.437,139.183-139.182
								C1582.713,3027.499,1520.276,2965.06,1443.53,2965.06z"/>
						</g>
						<g>
							<path style="fill:#000072;" d="M1443.53,3514.567c-226.252,0-410.323-184.07-410.323-410.322
								c0-226.255,184.071-410.325,410.323-410.325s410.323,184.07,410.323,410.325
								C1853.853,3330.497,1669.782,3514.567,1443.53,3514.567z M1443.53,2723.056c-210.188,0-381.188,171.001-381.188,381.189
								c0,210.188,171,381.186,381.188,381.186s381.188-170.999,381.188-381.186
								C1824.718,2894.057,1653.718,2723.056,1443.53,2723.056z"/>
						</g>
						<g>
							<path style="fill:#A55EEA;" d="M1851.037,2913.197l-36.452,12.198c-47.253,15.812-99.646,2.481-132.918-34.611
								c-58.548-65.269-143.565-106.317-238.137-106.317c-99.234,0-187.915,45.177-246.562,116.094
								c-34.879,42.176-91.816,58.988-143.735,41.673c-8.92-2.975-17.719-5.881-26.193-8.643
								c67.206-163.887,228.373-279.312,416.49-279.312C1623.732,2654.28,1779.218,2760.187,1851.037,2913.197z"/>
						</g>
						<g style="opacity:0.2;">
							<path style="fill:#000072;" d="M1851.037,2913.197l-36.468,12.188c-47.248,15.83-99.643,2.477-132.906-34.623
								c-58.562-65.263-143.541-106.296-238.134-106.296c-99.255,0-187.923,45.16-246.583,116.104
								c-34.865,42.149-91.777,58.999-143.735,41.664c-8.886-2.962-17.675-5.875-26.173-8.643
								c6.604-16.122,14.131-31.758,22.483-46.86c2.719,0.923,5.439,1.845,8.207,2.768c51.91,17.336,108.869,0.486,143.734-41.664
								c58.659-70.945,147.328-116.104,246.583-116.104c94.544,0,179.571,41.032,238.133,106.296
								c33.263,37.099,85.658,50.453,132.906,34.623l8.547-2.865C1836.226,2883.77,1844.045,2898.24,1851.037,2913.197z"/>
						</g>
						<g>
							<path style="fill:#000072;" d="M1095.109,2963.647c-15.485,0-31.155-2.48-46.487-7.595c-8.887-2.961-17.655-5.857-26.1-8.611
								c-3.851-1.258-7.006-4.058-8.706-7.735c-1.699-3.677-1.792-7.896-0.256-11.643
								c71.832-175.166,240.605-288.352,429.969-288.352c179.347,0,344.48,104.919,420.695,267.297
								c1.766,3.762,1.841,8.101,0.205,11.921c-1.637,3.823-4.828,6.763-8.769,8.083l-36.453,12.197
								c-53.111,17.761-111.355,2.583-148.385-38.701c-57.849-64.487-140.695-101.475-227.292-101.475
								c-91.323,0-177.1,40.388-235.336,110.811C1179.431,2944.626,1137.989,2963.644,1095.109,2963.647z M1046.721,2924.721
								c3.674,1.216,7.386,2.449,11.118,3.691c46.276,15.439,96.483,0.862,127.902-37.136
								c63.792-77.136,157.751-121.377,257.789-121.377c94.863,0,185.613,40.515,248.981,111.157
								c29.267,32.627,75.369,44.61,117.451,30.525l20.637-6.907c-74.292-143.796-224.446-235.828-387.069-235.828
								C1271.28,2668.847,1117.208,2768.759,1046.721,2924.721z"/>
						</g>
					</g>
					<g>
						<path style="fill:#8A90B2;" d="M2006.329,3162.11h-29.487c-25.585,0-46.325-20.74-46.325-46.325l0,0
							c0-25.585,20.741-46.325,46.325-46.325h29.487l0,0c23.131,0,41.882,18.751,41.882,41.882v44.116"/>
					</g>
					<g>
						<polyline style="fill:#B0B7E2;" points="1435.741,3003.942 1405.006,3088.883 1481.891,3088.883 1503.529,3028.15 						"/>
					</g>
					<g>
						<path style="fill:#B0B7E2;" d="M1059.428,3118.407l-47.077,25.041c-6.142,3.267-9.98,9.656-9.98,16.613v74.281
							c0,10.392,8.424,18.817,18.817,18.817h38.24"/>
					</g>
					<g>
						<polyline style="fill:#B0B7E2;" points="1554.959,2605.325 1536.096,2660.642 1629.875,2696.263 1643.66,2651.781 						"/>
					</g>
					<g>
						<path style="fill:#B0B7E2;" d="M2188.231,3069.459c-14.908,75.218-48.073,124.942-96.73,147.862
							c-7.818,3.69-15.927,6.507-24.28,8.498c-11.897,2.962-24.231,4.273-36.516,4.273h-327.87v-67.983h321.801
							c28.99,0,55.406-16.51,68.274-42.44c6.361-12.771,12.917-29.184,18.938-50.21H2188.231z"/>
					</g>
					<g>
						<path style="fill:#8A90B2;" d="M1159.495,2566.048v-63.337c0-39.609,32.109-71.719,71.719-71.719h174.92l109.75,135.055"/>
					</g>
					<g>
						<path style="fill:#000072;" d="M1496.316,2580.617h-336.82c-8.046,0-14.568-6.523-14.568-14.568v-63.337
							c0-47.578,38.707-86.287,86.285-86.287h174.919c8.046,0,14.568,6.523,14.568,14.568s-6.522,14.568-14.568,14.568h-174.919
							c-31.513,0-57.15,25.637-57.15,57.151v48.769h322.252c8.046,0,14.568,6.523,14.568,14.568
							C1510.883,2574.094,1504.361,2580.617,1496.316,2580.617z"/>
					</g>
					<g>
						<path style="fill:#B0B7E2;" d="M2266.522,2758.959l-7.235,44.82l-29.378,181.757l-6.992,43.314
							c-3.496,21.706-22.24,37.633-44.189,37.633h-201.885l-18.379-301.891l-0.631-5.633H2266.522z"/>
					</g>
					<g style="opacity:0.2;">
						<path style="fill:#000072;" d="M2104.869,2839.033l-20.395,146.503h145.434l-6.992,43.314
							c-3.496,21.706-22.24,37.633-44.189,37.633h-199.709l-20.555-301.891c2.185-1.942,4.37-3.788,6.556-5.633h301.503
							l-7.235,44.82L2104.869,2839.033z"/>
					</g>
					<g>
						<path style="fill:#000072;" d="M2178.714,3081.052h-185.288c-8.046,0-14.568-6.523-14.568-14.568
							c0-8.044,6.522-14.568,14.568-14.568h185.288c14.908,0,27.454-10.681,29.832-25.398l40.867-252.983h-291.597
							c-8.046,0-14.568-6.523-14.568-14.568s6.522-14.568,14.568-14.568h308.706c4.27,0,8.324,1.873,11.091,5.125
							c2.769,3.25,3.971,7.551,3.29,11.768l-43.595,269.873C2232.639,3060.07,2207.996,3081.052,2178.714,3081.052z"/>
					</g>
					<g>
						<path style="fill:#000072;" d="M2186.043,2839.472h-152.791c-5.364,0-9.712-4.348-9.712-9.712s4.348-9.712,9.712-9.712
							h152.791c5.364,0,9.712,4.348,9.712,9.712S2191.407,2839.472,2186.043,2839.472z"/>
					</g>
					<g>
						<path style="fill:#000072;" d="M2170.885,2919.172h-152.79c-5.364,0-9.712-4.348-9.712-9.712s4.348-9.712,9.712-9.712h152.79
							c5.364,0,9.712,4.348,9.712,9.712S2176.248,2919.172,2170.885,2919.172z"/>
					</g>
					<g>
						<path style="fill:#000072;" d="M2146.217,2995.541h-152.79c-5.364,0-9.712-4.348-9.712-9.712c0-5.364,4.348-9.712,9.712-9.712
							h152.79c5.364,0,9.712,4.348,9.712,9.712C2155.928,2991.193,2151.58,2995.541,2146.217,2995.541z"/>
					</g>
					<g>
						<path style="fill:#8A90B2;" d="M2328.532,2620.955l-7.575,78.423c-3.302,34.428-32.243,60.747-66.866,60.747h-247.942
							l-41.858-136.693l145.531-0.971L2328.532,2620.955z"/>
					</g>
					<g style="opacity:0.55;">
						<path style="fill:#F7F7F7;" d="M2328.532,2620.955l-7.575,78.423c-3.302,34.428-32.243,60.747-66.866,60.747h-37.245
							c34.623,0,63.563-26.319,66.914-60.747l7.478-78.18L2328.532,2620.955z"/>
					</g>
					<g style="opacity:0.2;">
						<path style="fill:#000072;" d="M2245.448,2760.125h-239.299l-41.858-136.693l145.531-0.971
							c-1.505,14.568-8.789,128.924,121.543,136.451C2236.318,2759.202,2240.98,2759.591,2245.448,2760.125z"/>
					</g>
					<g>
						<path style="fill:#000072;" d="M2254.099,2774.692h-247.926c-6.401,0-12.053-4.18-13.928-10.3l-41.882-136.679
							c-2.357-7.693,1.968-15.84,9.661-18.196c7.688-2.366,15.839,1.968,18.196,9.661l38.727,126.379h237.153
							c27.247,0,49.763-20.452,52.373-47.576l7.548-78.428c0.77-8.008,7.889-13.899,15.896-13.103
							c8.009,0.769,13.876,7.886,13.105,15.896l-7.548,78.428C2331.418,2742.912,2296.435,2774.692,2254.099,2774.692z"/>
					</g>
					<g>
						<g>
							<path style="fill:#8A90B2;" d="M2737.294,2708.594c-218.495,5.494-391.177,187.084-385.683,405.579
								c5.494,218.495,187.084,391.177,405.579,385.683s391.177-187.084,385.683-405.579
								C3137.379,2875.782,2955.789,2703.101,2737.294,2708.594z M2753.244,3342.915
								c-131.796,3.314-241.327-100.844-244.643-232.689c-3.314-131.796,100.844-241.327,232.64-244.641
								c131.844-3.315,241.375,100.843,244.69,232.639C2989.247,3230.068,2885.089,3339.6,2753.244,3342.915z"/>
						</g>
						<g style="opacity:0.2;">
							<path style="fill:#000072;" d="M2797.734,3454.78c-218.495,5.494-400.085-167.188-405.579-385.683
								c-2.374-94.417,28.551-181.998,82.084-251.396c-78.034,74.386-125.551,180.21-122.627,296.472
								c5.494,218.495,187.084,391.177,405.579,385.683c124.029-3.119,233.322-62.99,303.647-154.184
								C2992.195,3411.079,2900.015,3452.208,2797.734,3454.78z"/>
						</g>
						<g style="opacity:0.2;">
							<path style="fill:#000072;" d="M2739.716,2804.906c-50.194,1.262-97.166,14.781-138.121,37.669l-9.08-34.648l-51.382,33.205
								l-41.435,38.59c0,0,21.274-1.992,43.418,5.515c-60.466,56.361-97.434,137.389-95.193,226.515
								c4.157,165.34,141.557,295.999,306.848,291.843c165.34-4.157,295.999-141.557,291.841-306.896
								C3042.455,2931.407,2905.055,2800.748,2739.716,2804.906z M2753.244,3342.915
								c-131.796,3.314-241.327-100.844-244.643-232.689c-1.823-72.524,28.874-138.288,78.841-183.31
								c6.839-6.195,14.076-12.012,21.617-17.351c37.412-26.636,82.862-42.74,132.182-43.98
								c131.844-3.315,241.375,100.843,244.69,232.639C2989.247,3230.068,2885.089,3339.6,2753.244,3342.915z"/>
						</g>
						<g style="opacity:0.55;">
							<path style="fill:#F7F7F7;" d="M2737.294,2708.594c-108.932,2.739-206.418,49.199-276.181,122.212
								c66.577-56.758,152.301-91.895,246.573-94.265c218.495-5.494,400.085,167.188,405.579,385.683
								c2.756,109.612-39.313,209.907-109.501,283.368c87.739-74.776,142.233-187.091,139.109-311.314
								C3137.379,2875.782,2955.789,2703.101,2737.294,2708.594z"/>
						</g>
						<g>
							<path style="fill:#000072;" d="M2747.092,3357.56c-65.239,0-126.942-24.626-174.396-69.751
								c-49.032-46.628-76.973-109.558-78.673-177.2c-3.511-139.634,107.234-256.091,246.868-259.604
								c139.585-3.469,256.093,107.234,259.604,246.868l0,0c3.511,139.634-107.234,256.091-246.869,259.604
								C2751.446,3357.533,2749.263,3357.56,2747.092,3357.56z M2747.338,2880.06c-1.906,0-3.8,0.022-5.715,0.071
								c-123.574,3.108-221.581,106.172-218.474,229.746c1.505,59.861,26.232,115.554,69.625,156.819
								c43.392,41.262,100.262,63.149,160.12,61.655c123.574-3.108,221.582-106.172,218.475-229.746l0,0
								C2968.309,2976.945,2868.353,2880.06,2747.338,2880.06z"/>
						</g>
						<g>
							<path style="fill:#000072;" d="M2871.633,2973.462c15.607,9.373,28.845,22.7,39.264,38.022
								c10.359,15.383,17.843,32.859,21.938,51.104c4.024,18.257,4.856,37.214,2.033,55.552
								c-2.818,18.303-9.028,36.074-19.222,51.177c2.611-17.981,4.236-35.208,3.99-52.288c-0.136-17.056-2.189-33.823-5.752-50.208
								c-3.669-16.375-9.095-32.332-16.222-47.82c-3.602-7.722-7.557-15.361-11.905-22.927
								C2881.43,2988.481,2876.532,2981.169,2871.633,2973.462z"/>
						</g>
						<g>
							<path style="fill:#000072;" d="M2622.876,3235.012c-15.764-9.539-29.154-23.076-39.61-38.662
								c-10.419-15.627-17.924-33.386-21.882-51.909c-4-18.516-4.543-37.742-1.556-56.284c3.042-18.513,9.554-36.44,20.075-51.599
								c-2.983,18.154-4.894,35.583-4.856,52.886c-0.012,17.268,1.773,34.299,5.321,50.913c3.543,16.626,8.987,32.825,16.163,48.53
								C2603.668,3204.656,2612.705,3219.673,2622.876,3235.012z"/>
						</g>
						<g>
							<path style="fill:#000072;" d="M2856.194,3037.725c8.296,5.898,14.487,13.994,19.082,22.874
								c4.523,8.921,7.427,18.726,8.485,28.721c1.121,9.985,0.423,20.159-2.06,29.854c-2.564,9.661-6.823,18.921-13.689,26.467
								c-0.815-10.137-0.981-19.221-1.492-28.135c-0.475-8.884-1.132-17.507-2.063-26.096c-0.893-8.594-2.132-17.126-3.587-25.903
								C2859.45,3056.687,2857.597,3047.795,2856.194,3037.725z"/>
						</g>
						<g>
							<path style="fill:#000072;" d="M2656,3193.45c-11.069-5.598-20.245-14.36-27.517-24.509
								c-7.174-10.229-12.357-21.973-15.149-34.272c-2.747-12.302-3.219-25.107-1.147-37.424c2.108-12.29,6.58-24.199,14.186-34.014
								c0.088,12.373,0.14,23.689,1.067,34.79c0.852,11.077,2.524,21.809,4.833,32.366c2.387,10.554,5.581,20.896,9.57,31.265
								c2.027,5.168,4.243,10.334,6.583,15.615L2656,3193.45z"/>
						</g>
						<g>
							<path style="fill:#000072;" d="M2747.115,3514.567c-221.512,0-404.451-177.324-410.05-400.012
								c-5.687-226.179,173.698-414.819,399.879-420.508c226.183-5.732,414.822,173.701,420.509,399.88l0,0
								c2.755,109.568-37.323,213.65-112.85,293.071c-75.527,79.424-177.463,124.683-287.03,127.437
								C2754.08,3514.523,2750.59,3514.567,2747.115,3514.567z M2747.391,2723.051c-3.24,0-6.458,0.042-9.714,0.122
								c-210.121,5.286-376.769,180.53-371.486,390.649s180.601,376.973,390.649,371.487
								c210.121-5.283,376.769-180.527,371.487-390.649l0,0C3123.126,2887.797,2953.159,2723.051,2747.391,2723.051z"/>
						</g>
						<g>
							<path style="fill:#A55EEA;" d="M3000.931,2769.435l-17.177,13.983c-29.4,23.934-69.557,28.719-104.37,13.709
								c-43.016-18.548-90.644-28.282-140.544-27.028c-146.079,3.673-267.929,100.582-310.048,232.36
								c-13.127,41.071-50.215,69.748-93.319,70.832l-7.133,0.179c15.336-213.044,190.382-383.667,408.343-389.148
								C2835.761,2681.832,2927.644,2713.863,3000.931,2769.435z"/>
						</g>
						<g style="opacity:0.55;">
							<path style="fill:#F7F7F7;" d="M3000.931,2769.435l-17.184,13.985c-2.904,2.356-5.909,4.52-9.016,6.541
								c-72.298-52.926-161.952-83.265-258.457-80.838c-121.165,3.047-229.097,57.152-303.682,141.216
								c74.524-98.1,191.373-162.679,324.091-166.016C2835.761,2681.832,2927.644,2713.863,3000.931,2769.435z"/>
						</g>
						<g>
							<path style="fill:#000072;" d="M2328.341,3088.039c-3.976,0-7.786-1.626-10.538-4.509c-2.837-2.974-4.287-7.007-3.992-11.104
								c7.71-107.102,54.812-207.209,132.631-281.877c78.334-75.161,181.281-118.057,289.877-120.789
								c99.564-2.5,194.128,27.947,273.414,88.066c3.562,2.703,5.687,6.89,5.764,11.357c0.077,4.47-1.902,8.728-5.369,11.55
								l-17.177,13.982c-33.304,27.117-79.033,33.167-119.335,15.789c-42.489-18.323-87.708-27.014-134.409-25.842
								c-135.978,3.42-255.148,92.729-296.539,222.234c-15.085,47.195-58.016,79.729-106.829,80.957l-7.13,0.18
								C2328.586,3088.037,2328.463,3088.039,2328.341,3088.039z M2747.645,2698.752c-3.524,0-7.056,0.046-10.594,0.134
								c-204.116,5.132-370.117,158.291-392.657,359.092c32.499-4.443,60.183-27.605,70.524-59.953
								c45.164-141.306,175.193-238.755,323.558-242.488c50.95-1.27,100.293,8.213,146.678,28.215
								c30.293,13.059,64.551,8.604,89.404-11.631l2.468-2.009C2909.174,2723.271,2830.439,2698.752,2747.645,2698.752z"/>
						</g>
						<g style="opacity:0.2;">
							<path style="fill:#000072;" d="M2460.277,2797.543c0,0,53.998-14.014,61.062,60.445l75.685-52.383l-21.273-84.914
								l-48.289,33.614"/>
						</g>
					</g>
					<g>
						<g>
							<path style="fill:#9DA0C6;" d="M2273.524,2307.819v-30.587c0-13.418,10.877-24.296,24.295-24.296h54.503
								c13.418,0,24.295,10.878,24.295,24.296v24.617"/>
						</g>
						<g>
							<path style="fill:#A55EEA;" d="M2558.329,2550.66c-78.083,110.326-181.708,101.003-181.708,101.003h-479.52l-91.922-166.752
								l99.789-38.896l177.483-69.148c15.879-7.721,31.515-15.005,47.005-21.706c0.049,0,0.049,0,0.049,0
								c170.588-74.393,316.119-85.512,404.885,46.665l12.479,77.5L2558.329,2550.66z"/>
						</g>
						<g style="opacity:0.55;">
							<path style="fill:#F7F7F7;" d="M2558.329,2550.66c-4.419,6.215-8.886,12.042-13.451,17.53l-2.962-31.855l-7.77-82.259
								c-84.056-144.948-237.648-143.346-421.929-77.015c0,0,0,0-0.049,0c-16.753,5.924-33.652,12.528-50.841,19.521l-154.903,48.85
								l176.026-68.566c15.879-7.721,31.515-15.005,47.005-21.706c0.049,0,0.049,0,0.049,0
								c170.588-74.393,316.119-85.512,404.885,46.665l12.479,77.5L2558.329,2550.66z"/>
						</g>
						<g style="opacity:0.2;">
							<path style="fill:#000072;" d="M2558.329,2550.66c-78.083,110.326-181.708,101.003-181.708,101.003h-458.106l-49.724-166.752
								c0,0,15.588-17.335,36.177-38.896l177.483-69.148c15.879-7.721,31.515-15.005,47.005-21.706c0.049,0,0.049,0,0.049,0
								c-62.495,285.575,224.294,277.854,385.122,104.936l32.243,19.229L2558.329,2550.66z"/>
						</g>
						<g>
							<path style="fill:#000072;" d="M2383.151,2666.433c-3.461,0-5.884-0.132-7.097-0.218h-478.953
								c-5.308,0-10.196-2.888-12.759-7.537l-91.906-166.758c-2.026-3.677-2.368-8.049-0.936-11.997
								c1.431-3.945,4.495-7.085,8.407-8.608l276.686-107.791c145.627-70.862,352.501-144.553,469.893,30.154
								c4.487,6.677,2.711,15.73-3.966,20.217c-6.682,4.483-15.731,2.708-20.216-3.967
								c-80.905-120.4-214.597-126.558-433.491-19.946c-0.356,0.173-0.72,0.332-1.09,0.476l-261.739,101.968l79.723,144.653h470.912
								c0.436,0,0.87,0.02,1.305,0.059c3.851,0.315,96.598,6.711,168.5-94.895c4.646-6.57,13.739-8.127,20.305-3.477
								c6.569,4.648,8.125,13.74,3.478,20.308C2499.871,2658.466,2410.095,2666.433,2383.151,2666.433z"/>
						</g>
						<g>
							<path style="fill:#000072;" d="M2273.524,2322.387c-8.046,0-14.568-6.523-14.568-14.568v-30.588
								c0-21.428,17.434-38.862,38.864-38.862h54.503c21.429,0,38.864,17.434,38.864,38.862v24.619
								c0,8.044-6.522,14.568-14.568,14.568s-14.568-6.523-14.568-14.568v-24.619c0-5.364-4.364-9.727-9.728-9.727h-54.503
								c-5.364,0-9.728,4.363-9.728,9.727v30.588C2288.092,2315.864,2281.569,2322.387,2273.524,2322.387z"/>
						</g>
					</g>
					<g>
						<g>
							<path style="fill:#9DA0C6;" d="M2487.859,2134.646c0,0,51.432,7.402,74.461,86.153l222.382,884.132
								c4.424,17.59-5.677,35.568-23.002,40.938l-8.505,2.636c-18.735,5.807-38.499-5.329-43.237-24.363l-219.361-881.182
								c0,0-0.909-35.907-55.288-34.54"/>
						</g>
						<g>
							<path style="fill:#9DA0C6;" d="M2487.859,2134.646c0,0,51.432,7.402,74.461,86.153l222.382,884.132
								c4.424,17.59-5.677,35.568-23.002,40.938l-8.505,2.636c-18.735,5.807-38.499-5.329-43.237-24.363l-219.361-881.182
								c0,0-0.909-35.907-55.288-34.54"/>
						</g>
						<g>
							<path style="fill:#9DA0C6;" d="M2487.647,2125.768c0,0,51.644,16.28,74.673,95.031l222.382,884.132
								c4.424,17.59-5.677,35.568-23.002,40.938l-8.505,2.636c-18.735,5.807-38.499-5.329-43.237-24.363l-219.361-881.182
								c0,0-0.909-35.907-55.288-34.54h-67.636c-13.002,0-25.479-5.892-33.187-16.364c-12.402-16.85-15.385-40.971-2.453-60.245
								c6.77-10.09,18.564-15.65,30.685-14.8L2487.647,2125.768z"/>
						</g>
						<g style="opacity:0.55;">
							<path style="fill:#F7F7F7;" d="M2761.71,3145.869l-8.476,2.626c-0.055,0.053-0.055,0.053-0.11,0.053
								c6.453-8.094,9.133-18.976,6.453-29.64l-222.411-884.122c-15.914-54.468-45.445-74.756-62.124-82.14l-68.468-3.72
								c0,0-20.125-17.991-13.617-21.601c6.508-3.609,92.64,0,92.64,0l2.57,7.383c4.43,0.82,52.226,10.992,74.156,86.077
								l222.411,884.122C2789.163,3122.519,2779.046,3140.51,2761.71,3145.869z"/>
						</g>
						<g>
							<path style="fill:#000072;" d="M2743.133,3164.587c-8.323,0-16.61-2.117-23.959-6.258
								c-11.619-6.548-20.131-17.727-23.352-30.669l-219.359-881.182c-0.258-1.03-0.4-2.087-0.427-3.149
								c-0.154-1.887-2.717-21.289-40.359-20.347l-68.003,0.005c-17.85,0-34.642-8.335-44.918-22.295
								c-17.047-23.162-18.179-54.104-2.817-77c9.6-14.306,26.399-22.437,43.8-21.213l124.927,8.757
								c1.143,0.078,2.271,0.293,3.362,0.637c2.411,0.759,59.349,19.597,84.275,104.836c0.052,0.178,0.1,0.356,0.145,0.537
								l222.383,884.128c6.311,25.095-8.104,50.75-32.816,58.408l-8.503,2.634
								C2752.825,3163.871,2747.973,3164.587,2743.133,3164.587z M2505.065,2240.766l219.03,879.858
								c1.313,5.276,4.646,9.651,9.384,12.322c4.741,2.673,10.216,3.262,15.406,1.643l8.502-2.634
								c9.932-3.079,15.724-13.389,13.188-23.472l-222.314-883.855c-18.536-63.083-55.856-81.279-63.711-84.473l-122.848-8.613
								c-7.039-0.466-13.768,2.72-17.57,8.386c-9.858,14.69-6.055,32.432,2.087,43.494c4.807,6.531,12.827,10.43,21.454,10.43
								h67.637C2487.592,2192.575,2503.641,2222.963,2505.065,2240.766z"/>
						</g>
						<g>
							<path style="fill:#000072;" d="M2370.736,2222.99c-7.064,0-13.267-5.149-14.379-12.346
								c-1.228-7.952,4.221-15.393,12.173-16.621c15.331-2.368,25.31-20.935,24.678-36.116
								c-0.66-15.847-11.555-24.966-31.506-26.365c-8.026-0.562-14.076-7.524-13.513-15.549s7.511-14.063,15.552-13.513
								c41.646,2.92,57.566,29.92,58.578,54.214c1.165,27.954-17.368,61.184-49.34,66.123
								C2372.225,2222.934,2371.475,2222.99,2370.736,2222.99z"/>
						</g>
						<g>
							<path style="fill:#B0B7E2;" d="M2547.431,2396.619l28.552-9.577c22.162-7.434,45.943,5.666,51.503,28.371l14.916,60.912
								c5.063,20.676-6.977,41.69-27.374,47.779l-29.126,8.694c-21.975,6.56-44.949-6.689-50.278-28.995l-14.342-60.029
								C2516.476,2423.656,2527.821,2403.197,2547.431,2396.619z"/>
						</g>
						<g style="opacity:0.55;">
							<path style="fill:#F7F7F7;" d="M2615.008,2524.124l-18.611,5.52c15.132-8.638,23.231-26.523,18.903-44.144l-14.89-60.927
								c-5.573-22.689-29.364-35.789-51.521-28.334l-3.468,1.156c0.673-0.308,1.346-0.568,2.021-0.779l28.564-9.559
								c22.157-7.455,45.899,5.646,51.473,28.336l14.939,60.925C2647.453,2496.981,2635.402,2518.025,2615.008,2524.124z"/>
						</g>
						<g style="opacity:0.2;">
							<path style="fill:#000072;" d="M2631.474,2514.432c-4.504,4.388-10.053,7.782-16.466,9.692l-29.121,8.65
								c-21.985,6.576-44.953-6.641-50.274-28.949l-14.334-60.066c-4.78-20.087,6.557-40.579,26.162-47.144l25.192-8.454
								c-10.788,9.5-15.948,24.494-12.42,39.22l14.334,60.066c5.322,22.307,28.289,35.525,50.274,28.949L2631.474,2514.432z"/>
						</g>
						<g>
							<path style="fill:#A55EEA;" d="M2590.872,2651.088l61.689-23.22c16.876-6.353,35.566,3.149,40.378,20.527l91.929,332.011
								c4.345,15.694-4.327,32.05-19.757,37.258l-70.509,23.799c-16.979,5.731-35.234-4.247-39.579-21.632l-83.109-332.59
								C2568.137,2672.125,2576.289,2656.577,2590.872,2651.088z"/>
						</g>
						<g style="opacity:0.55;">
							<path style="fill:#F7F7F7;" d="M2765.127,3017.654l-14.834,5.036c5.644-7.38,7.92-17.298,5.25-26.897l-91.945-332.025
								c-4.808-17.366-23.506-26.902-40.348-20.552l-45.183,17.02c3.299-4.018,7.638-7.236,12.788-9.162l61.688-23.216
								c16.89-6.351,35.587,3.137,40.396,20.551l91.944,331.977C2789.212,2996.112,2780.54,3012.457,2765.127,3017.654z"/>
						</g>
						<g style="opacity:0.2;">
							<path style="fill:#000072;" d="M2772.467,3014.021c-2.245,1.513-4.691,2.741-7.34,3.633l-70.514,23.826
								c-17.003,5.722-35.226-4.263-39.598-21.64l-83.119-332.587c-3.78-15.109,4.378-30.663,18.957-36.179l61.688-23.216
								c1.925-0.728,3.903-1.264,5.839-1.555l-20.739,7.808c-14.58,5.516-22.738,21.07-18.957,36.179l83.119,332.588
								c4.323,17.378,22.595,27.362,39.598,21.64L2772.467,3014.021z"/>
						</g>
						<g>
							<path style="fill:#000072;" d="M2574.359,2549.072c-9.408,0-18.693-2.471-27.114-7.326
								c-12.924-7.451-22.323-20.047-25.79-34.556l-14.341-60.031c-6.606-27.644,8.734-55.31,35.684-64.351c0,0,0,0,0.001,0
								l28.551-9.578c14.418-4.834,30.325-3.401,43.641,3.938c13.317,7.336,23.029,20.012,26.644,34.78l14.916,60.913
								c6.918,28.245-9.492,56.885-37.357,65.203l-29.126,8.694C2584.88,2548.305,2579.599,2549.072,2574.359,2549.072z
								 M2552.065,2410.429c-12.546,4.209-19.689,17.09-16.614,29.958l14.341,60.032c1.638,6.853,5.902,12.566,12.007,16.086
								c6.102,3.521,13.18,4.351,19.935,2.332l29.127-8.694c12.971-3.872,20.61-17.205,17.391-30.354l-14.916-60.913
								c-1.709-6.975-6.115-12.725-12.405-16.191c-6.293-3.469-13.508-4.119-20.319-1.833l-28.55,9.578H2552.065z"/>
						</g>
						<g>
							<path style="fill:#000072;" d="M2684.815,3057.631c-7.526,0.002-15.018-1.865-21.729-5.532
								c-11.052-6.043-19.143-16.516-22.197-28.736l-83.109-332.59c-5.573-22.3,6.448-45.222,27.96-53.32v0.002l61.688-23.22
								c11.863-4.468,25.146-3.733,36.445,2.012c11.3,5.745,19.72,16.045,23.103,28.262l91.93,332.012
								c6.406,23.132-6.393,47.268-29.136,54.946l-70.511,23.801C2694.57,3056.85,2689.686,3057.631,2684.815,3057.631z
								 M2663.389,2640.453c-1.913,0-3.835,0.347-5.697,1.047l-61.688,23.22c0,0,0,0,0,0.002
								c-7.661,2.881-11.942,11.045-9.957,18.984l83.109,332.59c1.104,4.417,3.911,8.052,7.905,10.235
								c3.993,2.182,8.567,2.588,12.882,1.128l70.508-23.799c8.099-2.735,12.659-11.328,10.377-19.568l-91.93-332.012
								c-1.222-4.414-4.144-7.988-8.228-10.063C2668.361,2641.044,2665.882,2640.453,2663.389,2640.453z M2590.872,2651.088h0.05
								H2590.872z"/>
						</g>
						<g>
							<path style="fill:#000072;" d="M2585.002,2751.764c-5.056,0-9.774-3.184-11.493-8.237c-2.157-6.348,1.239-13.242,7.587-15.4
								l121.735-41.384c6.354-2.151,13.243,1.238,15.402,7.588c2.157,6.348-1.239,13.242-7.587,15.4l-121.735,41.384
								C2587.615,2751.554,2586.297,2751.764,2585.002,2751.764z"/>
						</g>
						<g>
							<path style="fill:#000072;" d="M2652.714,3003.288c-5.056,0-9.774-3.184-11.493-8.235c-2.158-6.35,1.239-13.245,7.587-15.403
								l121.735-41.387c6.351-2.158,13.243,1.24,15.402,7.586c2.158,6.35-1.239,13.244-7.587,15.403l-121.735,41.387
								C2655.328,3003.078,2654.01,3003.288,2652.714,3003.288z"/>
						</g>
						<g>
							
								<ellipse transform="matrix(0.6891 -0.7247 0.7247 0.6891 -1395.4143 2955.8975)" style="fill:#462B5B;" cx="2747.259" cy="3104.241" rx="14.77" ry="14.77"/>
						</g>
						<g>
							<path style="fill:#9DA0C6;" d="M2461.804,2211.47c63.001,13.402,63.441-86.42,15.592-86.42l-34.108-2.391
								c6.912-69.138,115.025-63.198,115.025,60.531c-7.776,91.6-107.124,79.368-119.881,25.215L2461.804,2211.47z"/>
						</g>
						<g style="opacity:0.2;">
							<path style="fill:#000072;" d="M2558.33,2183.163c-7.765,91.654-107.131,79.405-119.874,25.265l23.352,3.063
								c16.734,3.554,29.039-0.875,37.187-9.297c21.492,3.554,45.007-3.719,59.226-25.594
								C2558.275,2178.788,2558.33,2180.92,2558.33,2183.163z"/>
						</g>
						<g>
							<path style="fill:#000072;" d="M2496.326,2265.141c-34.309,0-64.713-22.153-72.074-53.396
								c-1.097-4.658,0.164-9.558,3.372-13.108c3.208-3.552,7.948-5.308,12.701-4.675l23.372,3.064
								c0.382,0.049,0.762,0.115,1.138,0.195c11.454,2.427,19.731,0.146,25.317-7c7.656-9.797,8.933-27.153,2.905-39.512
								c-3.589-7.361-8.857-11.091-15.662-11.091c-0.341,0-0.68-0.012-1.019-0.037l-34.108-2.393
								c-3.928-0.276-7.578-2.129-10.117-5.139c-2.539-3.013-3.751-6.921-3.359-10.842c3.54-35.398,29.52-58.953,63.121-57.273
								c38.997,1.944,80.968,40.093,80.968,119.255c0,0.41-0.017,0.823-0.052,1.233c-4.744,55.876-39.603,78.223-70.646,80.503
								C2500.222,2265.07,2498.267,2265.141,2496.326,2265.141z M2468.082,2227.087c9.303,6.496,21.204,9.553,31.967,8.781
								c24.894-1.829,40.797-21.248,43.696-53.303c-0.19-59.692-27.709-88.257-53.281-89.531
								c-12.881-0.684-23.097,5.486-28.573,16.326l16.061,1.125c17.844,0.203,32.872,10.183,41.294,27.454
								c10.852,22.253,8.271,51.787-6.136,70.222C2502.304,2221.987,2486.539,2228.515,2468.082,2227.087z"/>
						</g>
					</g>
					<g>
						<path style="fill:#000072;" d="M2178.714,3081.052h-185.288c-8.046,0-14.568-6.523-14.568-14.568
							c0-8.044,6.522-14.568,14.568-14.568h185.288c14.908,0,27.454-10.681,29.832-25.398l43.595-269.875
							c1.283-7.942,8.755-13.347,16.704-12.058c7.943,1.284,13.341,8.762,12.058,16.707l-43.595,269.873
							C2232.639,3060.07,2207.996,3081.052,2178.714,3081.052z"/>
					</g>
					<g>
						<path style="fill:#8A90B2;" d="M1702.835,3162.11v67.983l-56.378,41.56c-14.382,10.602-31.781,16.322-49.649,16.322H1085.31
							c-14.276,0-25.882-11.606-25.882-25.931v-147.279c0-14.325,11.606-25.882,25.882-25.882h506.043
							c21.182,0,41.576,8.034,57.067,22.481L1702.835,3162.11z"/>
					</g>
					<g style="opacity:0.2;">
						<path style="fill:#000072;" d="M1702.835,3171.288v58.805l-56.377,41.566c-14.374,10.586-31.806,16.316-49.628,16.316h-511.52
							c-14.276,0-25.882-11.606-25.882-25.931v-58.805c0,14.325,11.606,25.931,25.882,25.931h511.52
							c17.821,0,35.254-5.681,49.628-16.316L1702.835,3171.288z"/>
					</g>
					<g style="opacity:0.55;">
						<path style="fill:#F7F7F7;" d="M1702.835,3162.11v36.419l-54.435-50.744c-15.49-14.47-35.885-22.483-57.057-22.483H1085.31
							c-14.276,0-25.882,11.557-25.882,25.882v-36.419c0-14.325,11.606-25.882,25.882-25.882h506.033
							c21.172,0,41.567,8.012,57.057,22.483L1702.835,3162.11z"/>
					</g>
					<g>
						<path style="fill:#000072;" d="M1596.807,3302.543H1085.31c-22.303,0-40.449-18.167-40.449-40.498v-147.28
							c0-22.305,18.146-40.449,40.449-40.449h506.044c24.957,0,48.754,9.375,67.003,26.394l54.414,50.747
							c2.955,2.756,4.632,6.614,4.632,10.654v67.981c0,4.626-2.198,8.979-5.924,11.726l-56.378,41.56
							C1638.094,3295.915,1617.937,3302.543,1596.807,3302.543z M1085.31,3103.451c-6.238,0-11.313,5.076-11.313,11.313v147.28
							c0,6.265,5.076,11.363,11.313,11.363h511.498c14.863,0,29.042-4.661,41.005-13.482l50.455-37.192v-54.29l-49.782-46.426
							c-12.838-11.973-29.576-18.567-47.133-18.567H1085.31z"/>
					</g>
					<g>
						<path style="fill:#000072;" d="M1059.428,3267.726h-38.241c-18.408,0-33.384-14.976-33.384-33.384v-74.282
							c0-12.371,6.786-23.665,17.709-29.473l47.075-25.042c7.1-3.777,15.923-1.084,19.702,6.021
							c3.778,7.102,1.083,15.923-6.021,19.702l-47.076,25.042c-1.39,0.74-2.253,2.175-2.253,3.75v74.282
							c0,2.341,1.906,4.248,4.248,4.248h38.241c8.046,0,14.568,6.523,14.568,14.568S1067.474,3267.726,1059.428,3267.726z"/>
					</g>
					<g>
						<path style="fill:#000072;" d="M1616.534,3297.287c-8.046,0-14.568-6.523-14.568-14.568v-189.934
							c0-8.044,6.522-14.568,14.568-14.568c8.046,0,14.568,6.523,14.568,14.568v189.934
							C1631.102,3290.763,1624.58,3297.287,1616.534,3297.287z"/>
					</g>
					<g>
						<path style="fill:#8A90B2;" d="M1488.431,2733.029l-76.211,227.895c-5.745,17.18,3.307,35.799,20.367,41.891l70.942,25.335
							c17.478,6.242,36.684-3.021,42.682-20.584l77.453-226.808"/>
					</g>
					<g style="opacity:0.55;">
						<path style="fill:#F7F7F7;" d="M1536.096,2748.894l-50.342,149.716c-4.166,12.389,1.86,25.904,13.861,31.084l0,0
							c13.696,5.912,29.496-1.336,33.948-15.574l45.447-145.339"/>
					</g>
					<g>
						<path style="fill:#000072;" d="M2030.716,3244.66h-327.881c-8.046,0-14.568-6.523-14.568-14.568
							c0-8.044,6.522-14.568,14.568-14.568h327.881c20.173,0,38.528-3.828,54.554-11.375c41.105-19.355,69.58-59.727,84.789-120.122
							h-47.386c-4.965,15.627-10.568,29.753-16.705,42.112c-15.49,31.174-46.652,50.54-81.327,50.54h-321.805
							c-8.046,0-14.568-6.523-14.568-14.568s6.522-14.568,14.568-14.568h321.805c23.536,0,44.701-13.169,55.234-34.368
							c6.708-13.506,12.759-29.568,17.985-47.742c1.794-6.243,7.505-10.542,14-10.542h76.394c4.36,0,8.492,1.953,11.26,5.325
							c2.766,3.369,3.878,7.803,3.029,12.08c-15.818,79.666-51.097,132.896-104.858,158.21
							C2077.746,3239.899,2055.214,3244.66,2030.716,3244.66z"/>
					</g>
					<g>
						<path style="fill:#A55EEA;" d="M1517.464,2653.566l135,51.277c14.311,5.436,21.346,21.583,15.581,35.765l-10.04,24.701
							c-5.485,13.495-20.606,20.297-34.343,15.449l-135.233-47.729c-14.299-5.047-21.736-20.788-16.554-35.039l10.272-28.249
							C1487.349,2655.443,1503.241,2648.163,1517.464,2653.566z"/>
					</g>
					<g style="opacity:0.55;">
						<path style="fill:#F7F7F7;" d="M1578.476,2678.657l6.74,2.583c17.929,6.869,27.295,26.615,21.272,44.846l-2.876,8.705
							c-6.318,19.12-27.108,29.323-46.096,22.62l-7.133-2.518c-18.954-6.69-28.74-27.621-21.719-46.455l3.27-8.77
							C1538.912,2680.947,1559.818,2671.509,1578.476,2678.657z"/>
					</g>
					<g>
						<path style="fill:#000072;" d="M1632.78,2796.899c-4.635,0-9.347-0.774-13.964-2.402l-135.234-47.729
							c-10.609-3.745-19.099-11.409-23.905-21.582c-4.806-10.173-5.336-21.599-1.49-32.173l10.272-28.25
							c3.858-10.61,11.635-19.041,21.898-23.74c10.263-4.7,21.727-5.085,32.28-1.074h-0.001l135,51.277
							c10.618,4.031,18.965,11.987,23.502,22.4c4.537,10.413,4.68,21.943,0.404,32.468l-10.04,24.702
							C1664.915,2787.001,1649.345,2796.899,1632.78,2796.899z M1507.773,2666.349c-1.8,0-3.595,0.388-5.283,1.162
							c-3.118,1.426-5.478,3.987-6.65,7.207l-10.272,28.25c-1.167,3.21-1.006,6.682,0.453,9.771c1.46,3.088,4.038,5.417,7.259,6.553
							l135.233,47.729c6.41,2.266,13.439-0.898,15.997-7.197l10.04-24.702c1.299-3.196,1.256-6.697-0.122-9.858
							c-1.377-3.162-3.911-5.576-7.136-6.802l-135-51.277c-0.001,0-0.001,0-0.001,0
							C1510.822,2666.628,1509.297,2666.349,1507.773,2666.349z"/>
					</g>
					<g>
						<path style="fill:#000072;" d="M1514.757,3044.684c-5.422,0-10.862-0.935-16.127-2.815l-70.944-25.337
							c-24.347-8.692-37.483-35.713-29.282-60.23l76.211-227.893c2.552-7.632,10.801-11.75,18.436-9.197
							c7.629,2.551,11.747,10.806,9.196,18.435l-76.211,227.896c-3.207,9.587,1.929,20.151,11.449,23.552l70.944,25.337
							c4.752,1.697,9.873,1.423,14.418-0.769c4.546-2.192,7.948-6.03,9.578-10.806l77.455-226.807
							c2.599-7.617,10.88-11.67,18.494-9.08c7.613,2.6,11.677,10.882,9.078,18.494l-77.454,226.806
							c-4.171,12.215-12.869,22.026-24.493,27.634C1528.916,3043.083,1521.851,3044.684,1514.757,3044.684z"/>
					</g>
					<g>
						<path style="fill:#000072;" d="M1536.097,2675.214c-1.56,0-3.145-0.254-4.703-0.784c-7.615-2.598-11.682-10.876-9.086-18.491
							l18.864-55.317c2.598-7.615,10.878-11.665,18.49-9.087c7.615,2.598,11.682,10.877,9.086,18.491l-18.864,55.317
							C1547.818,2671.401,1542.158,2675.214,1536.097,2675.214z"/>
					</g>
					<g>
						<path style="fill:#462B5B;" d="M1629.88,2710.834c-1.429,0-2.881-0.212-4.318-0.659c-7.684-2.38-11.984-10.542-9.602-18.225
							l13.785-44.48c2.382-7.686,10.544-11.985,18.227-9.602c7.684,2.38,11.984,10.542,9.602,18.225l-13.785,44.48
							C1641.853,2706.823,1636.096,2710.834,1629.88,2710.834z"/>
					</g>
					<g>
						<path style="fill:#000072;" d="M1552.999,2999.828c-1.399,0-2.821-0.244-4.21-0.757l-133.246-49.29
							c-6.289-2.327-9.501-9.312-7.174-15.598c2.324-6.287,9.303-9.502,15.597-7.175l133.246,49.29
							c6.289,2.327,9.501,9.312,7.174,15.598C1562.574,2996.796,1557.934,2999.828,1552.999,2999.828z"/>
					</g>
					<g>
						<path style="fill:#000072;" d="M1481.892,3103.451h-76.885c-4.749,0-9.198-2.314-11.925-6.201s-3.389-8.857-1.774-13.323
							l30.735-84.941c2.737-7.566,11.088-11.484,18.655-8.743c7.566,2.737,11.479,11.089,8.743,18.655l-23.671,65.418h45.847
							l18.189-51.055c2.701-7.578,11.035-11.536,18.612-8.833c7.579,2.7,11.535,11.033,8.834,18.613l-21.637,60.732
							C1493.547,3099.577,1488.053,3103.451,1481.892,3103.451z"/>
					</g>
					<g>
						<path style="fill:#000072;" d="M2006.329,3176.679h-29.487c-33.577,0-60.892-27.317-60.892-60.894
							s27.316-60.894,60.892-60.894h29.487c31.127,0,56.45,25.325,56.45,56.45v44.116c0,8.044-6.522,14.568-14.568,14.568
							c-8.046,0-14.568-6.523-14.568-14.568v-44.116c0-15.061-12.253-27.314-27.315-27.314h-29.487
							c-17.511,0-31.757,14.246-31.757,31.758s14.246,31.758,31.757,31.758h29.487c8.046,0,14.568,6.523,14.568,14.568
							S2014.375,3176.679,2006.329,3176.679z"/>
					</g>
					<g>
						<path style="fill:#E84118;" d="M1157.744,2583.853l-58.271,0c-8.04,28.618-27.151,49.166-57.334,61.642
							c-9.13,3.774-15.099,12.679-15.099,22.559l0,82.337c0,13.509,10.951,24.46,24.46,24.46h66.386
							c22.014,0,39.859-17.845,39.859-39.859V2583.853z"/>
					</g>
					<g style="opacity:0.3;">
						<path style="fill:#462B5B;" d="M1157.76,2668.654v66.332c0,22.046-17.87,39.867-39.867,39.867h-66.38
							c-13.499,0-24.474-10.974-24.474-24.474v-66.332c0,13.499,10.974,24.425,24.474,24.425h66.38
							C1139.89,2708.472,1157.76,2690.651,1157.76,2668.654z"/>
					</g>
					<g>
						<path style="fill:#000072;" d="M1117.885,2789.421H1051.5c-21.52,0-39.028-17.507-39.028-39.028v-82.339
							c0-15.83,9.46-29.968,24.102-36.021c26.062-10.774,42.049-27.82,48.876-52.119c1.765-6.284,7.496-10.627,14.025-10.627h58.27
							c8.046,0,14.568,6.523,14.568,14.568v151.138C1172.312,2765.004,1147.896,2789.421,1117.885,2789.421z M1109.947,2598.422
							c-10.773,27.561-31.666,47.898-62.245,60.535c-3.702,1.531-6.095,5.103-6.095,9.097v82.339c0,5.454,4.437,9.893,9.893,9.893
							h66.385c13.945,0,25.291-11.345,25.291-25.293v-136.57H1109.947z"/>
					</g>
					<g style="opacity:0.25;">
						<path style="fill:#F7F7F7;" d="M1474.608,3193.139h-297.424c-12.068,0-21.851-9.783-21.851-21.852l0,0
							c0-12.068,9.783-21.852,21.851-21.852h297.424c12.068,0,21.852,9.783,21.852,21.852l0,0
							C1496.459,3183.356,1486.676,3193.139,1474.608,3193.139z"/>
					</g>
					<g style="opacity:0.2;">
						<path style="fill:#000072;" d="M2188.231,3069.459c-14.908,75.218-48.073,124.942-96.73,147.862
							c-7.818,3.69-15.927,6.507-24.28,8.498c40.887-57.737-42.586-63.709-42.586-63.709c28.99,0,55.406-16.51,68.274-42.44
							c6.361-12.771,12.917-29.184,18.938-50.21H2188.231z"/>
					</g>
					<g>
						<path style="fill:#000072;" d="M3447.871,3502.3c-224.272,6.821-448.544,9.282-672.816,11.938
							c-224.272,2.236-448.544,0.671-672.816,0.266c-224.272,0.044-448.544,2.161-672.816-0.103
							c-224.272-2.759-448.544-5.151-672.816-12.102c-1.341-0.042-2.394-1.162-2.353-2.502c0.04-1.289,1.083-2.31,2.353-2.354
							c224.272-6.951,448.544-9.341,672.816-12.1c224.272-2.266,448.544-0.149,672.816-0.103
							c224.272-0.408,448.544-1.973,672.816,0.264c224.272,2.656,448.544,5.117,672.816,11.938c1.341,0.042,2.395,1.162,2.354,2.502
							C3450.186,3501.235,3449.142,3502.258,3447.871,3502.3z"/>
					</g>
					<g style="opacity:0.2;">
						<path style="fill:#000072;" d="M2706.299,2288.793l-71.139,31.563l-16.219-94.642c10.975,10.732,54.969,48.705,75.169-11.314
							C2698.626,2242.808,2706.299,2288.793,2706.299,2288.793z"/>
					</g>
					<g>
						<g>
							<path style="fill:#F7F7F7;" d="M818.519,3053.719c-4.866-82.107-116.55-52.877-116.542,15.741
								c-85.644,9.832-72.29,126.155,13.354,116.323c-18.956,67.104,75.734,93.853,94.69,26.749
								c50.18,44.2,120.376-40.427,51.796-96.747C905.925,3069.459,897.522,3022.714,818.519,3053.719z"/>
						</g>
						<g style="opacity:0.2;">
							<path style="fill:#000072;" d="M810.021,3212.531c-18.938,67.109-113.628,40.353-94.69-26.756
								c-67.497,7.77-90.125-62.835-54.726-97.895c12.043,12.14,30.495,19.424,54.726,16.656
								c-18.938,67.108,75.752,93.864,94.69,26.756c22.094,19.472,48.073,13.985,64.341-3.156
								C920.541,3183.445,856.638,3253.564,810.021,3212.531z"/>
						</g>
						<g>
							<path style="fill:#000072;" d="M762.395,3265.986c-6.06,0-12.096-0.842-17.896-2.48
								c-25.745-7.273-47.307-30.374-46.219-62.813c-19.811-1.479-33.64-9.163-42.374-16.23
								c-14.551-11.775-23.769-28.752-25.957-47.805c-2.186-19.053,2.944-37.678,14.45-52.444
								c7.654-9.826,21.241-21.809,44.032-27.17c6.636-39.783,44.503-66.685,80.088-67.742c30.754-0.893,53.445,16.272,61.515,45.02
								c40.631-12.046,58.871-1.218,67.048,10.942c11.648,17.324,5.785,43.216-15.092,69.534
								c18.149,19.624,26.042,43.511,21.829,67.28c-4.426,24.961-21.866,46.191-44.432,54.087
								c-14.243,4.986-29.093,4.182-42.64-1.997C804.313,3256.017,783.23,3265.983,762.395,3265.986z M715.332,3171.215
								c4.243,0,8.309,1.855,11.095,5.129c3.147,3.699,4.243,8.723,2.922,13.398c-7.085,25.083,6.482,41.038,23.07,45.723
								c16.592,4.682,36.498-1.816,43.584-26.895c1.36-4.817,5.099-8.599,9.9-10.012c4.802-1.418,9.993-0.264,13.748,3.04
								c11.818,10.413,22.896,9.595,30.112,7.065c12.595-4.407,22.789-17.136,25.367-31.672
								c3.136-17.688-4.875-35.427-22.559-49.949c-3.129-2.568-5.048-6.326-5.295-10.366c-0.247-4.043,1.199-8.003,3.991-10.938
								c21.276-22.344,24.59-39.827,21.636-44.219c-1.862-2.771-14.873-7.658-49.063,5.759c-4.342,1.704-9.238,1.223-13.168-1.289
								c-3.931-2.512-6.42-6.755-6.696-11.411c-1.914-32.292-22.516-36.497-34.595-36.155
								c-24.994,0.742-52.841,21.882-52.837,51.033c0.001,7.405-5.552,13.63-12.906,14.475
								c-20.21,2.319-34.954,11.926-41.514,27.051c-6.096,14.053-4.141,31.082,4.98,43.386
								c9.818,13.245,26.362,19.272,46.564,16.941C714.224,3171.247,714.78,3171.215,715.332,3171.215z"/>
						</g>
					</g>
				</g>
				<g>
					<g>
						<path style="fill:#AFAFC6;" d="M2198.436,2286.466c-78.694,162.529-214.482,235.537-253.2,253.692
							c-6.781,3.172-10.609,4.649-10.609,4.649c3.117,4.649,5.961,9.953,8.476,15.749c26.578,60.867,22.75,180.959,15.039,269.442
							c-5.359,61.906-12.578,108.39-12.578,108.39c13.179,11.976,23.187,23.734,30.296,35.054
							c57.312,90.835-68.249,155.202-197.091,89.797c-123.045-62.453-119.928-131.413-122.006-205.568
							c-0.328-13.179-0.875-26.524-2.297-39.976c-9.406-89.412,28.601-82.85-181.014-249.48
							c-101.061-80.389-123.865-187.521-120.366-276.934c3.227-81.046,29.804-159.468,74.538-227.115l99.475-150.498
							c-91.327-70.327-172.974-190.638-225.474-310.348c-26.469-60.319-45.5-120.529-54.687-174.123
							c-15.75-92.202,23.57-133.381,59.773-151.701c28.219-14.328,61.851-13.726,89.905,0.82
							c69.452,35.984,108.882,105.217,141.967,181.396l5.031,3.063l417.862,254.621l262.005,159.631l21.984,13.398
							c5.523,34.562,8.75,67.483,10.007,98.819C2260.56,2111.139,2236.006,2208.973,2198.436,2286.466z"/>
					</g>
					<g>
						<path style="fill:#AFAFC6;" d="M2632.781,810.456c305.805-33.353,409.709-48.896,172.061,384.953"/>
					</g>
					<g style="opacity:0.6;">
						<path style="fill:#F5F5F5;" d="M2933.974,893.756c-13.125-75.413-116.483-65.187-284.918-46.757l-16.297-36.531
							C2835.702,788.32,2949.723,774.046,2933.974,893.756z"/>
					</g>
					<g>
						<path style="fill:#F5F5F5;" d="M1945.236,2540.157l-10.609-5.688c0,0-16.406-41.616-83.616-83.507
							c-67.156-41.89-95.483-115.334-129.663-198.021c-34.179-82.686,31.445-166.138,69.726-311.058
							c38.281-144.92,99.202-162.803,99.202-162.803l333.207,97.944l21.984,13.398
							C2317.325,2341.864,2007.141,2511.118,1945.236,2540.157z"/>
					</g>
					<g>
						<path style="fill:#F5F5F5;" d="M1778.769,3063.238c-123.045-62.453-119.928-131.413-122.006-205.568h0.055
							c0,0,169.693-107.623,300.996-27.891l0.328,0.219c-5.359,61.906-12.578,108.39-12.578,108.39
							C2064.453,3046.229,1923.689,3136.791,1778.769,3063.238z"/>
					</g>
					<g>
						<path style="fill:#F5F5F5;" d="M1550.561,1480.546c0,0-84.874,162.529-248.935,122.772
							c-26.469-60.319-45.5-120.529-54.687-174.123c-15.75-92.202,23.57-133.381,59.773-151.701
							c28.219-14.328,61.851-13.726,89.905,0.82c69.452,35.984,108.882,105.217,141.967,181.396l5.031,3.063L1550.561,1480.546z"/>
					</g>
					<g style="opacity:0.2;">
						<path style="fill:#000072;" d="M2255.474,1989.242c-511.65,88.375-618.727-384.448-618.727-384.448l324.73,112.6
							l262.005,159.631l21.984,13.398C2250.99,1924.985,2254.216,1957.907,2255.474,1989.242z"/>
					</g>
					<g>
						<path style="fill:#FF699D;" d="M2711.004,901.741c203.884-39.922,172.895,3.827,76.327,186.107"/>
					</g>
					<g>
						<path style="fill:#AFAFC6;" d="M2802.507,1332.126c-3.008,47.085-11.375,93.733-24.719,139.013l-52.499,178.17
							c0,0-14.547,48.288-49.437,103.576c-46.976,74.484-130.866,161.764-265.887,160.725
							c-232.583-19.578-459.315-95.265-681.781-211.419c-72.898-67.21-136.444-147.545-189.599-242.481
							c-41.015-182.216,24.773-397.847,241.552-660.781c128.514-372.8,195.943-496.721,483.978-147.654
							C2648.18,713.563,2827.663,940.513,2802.507,1332.126z"/>
					</g>
					<g style="opacity:0.6;">
						<path style="fill:#F5F5F5;" d="M2802.507,1332.126c-3.008,47.085-11.375,93.733-24.719,139.013l-52.499,178.17
							c0,0-38.445,127.53-140.108,205.349c71.64-75.687,99.749-168.874,99.749-168.874l52.499-178.224
							c13.344-45.28,21.711-91.928,24.719-139.014c25.101-391.557-154.326-618.507-538.392-680.796
							c-148.748-180.302-238.653-234.442-308.543-193.208c76.234-94.389,170.021-60.046,348.902,156.733
							C2648.18,713.563,2827.663,940.513,2802.507,1332.126z"/>
					</g>
					<g>
						<path style="fill:#000072;" d="M2412.272,1930.046c-1.235,0-2.474,0.042-3.702-0.068
							c-224.318-18.884-449.358-88.643-687.98-213.262c-1.281-0.669-2.466-1.504-3.528-2.483
							c-75.127-69.275-139.987-152.207-192.775-246.489c-0.773-1.382-1.343-2.866-1.691-4.412
							c-44.831-199.102,34.649-419.109,242.994-672.546c71.422-207.004,125.419-343.799,217.798-360.508
							c72.267-13.081,158.982,48.525,289.452,205.808c387.867,65.034,571.569,299.529,546.057,697.068
							c-3.075,47.93-11.609,95.908-25.364,142.6l-52.49,178.191c-0.881,2.927-21.495,70.171-72.084,138.01
							C2601.562,1882.336,2512.847,1930.046,2412.272,1930.046z M2410.689,1897.228c0.522,0.002,1.064,0.005,1.586,0.005
							c218.217,0.024,296.559-250.137,297.328-252.671l52.457-178.081c13.068-44.36,21.174-89.924,24.094-135.427
							c24.722-385.242-146.897-602.302-524.667-663.586c-3.931-0.637-7.494-2.681-10.028-5.752
							c-120.775-146.384-204.092-209.641-262.23-199.15c-75.022,13.569-127.556,150.188-193.583,341.711
							c-0.638,1.853-1.605,3.577-2.851,5.09c-202.036,245.046-280.137,455.881-238.702,644.439
							c50.507,89.731,112.267,168.716,183.621,234.834C1971.448,1810.451,2191.618,1878.688,2410.689,1897.228z"/>
					</g>
					<g>
						<path style="fill:#F5F5F5;" d="M2428.175,1593.635c59.542-117.861-109.688-249.224-252.733-200.521
							c-36.208,12.328-62.988,43.013-72.364,80.095c-33.31,131.746,3.802,212.845,83.107,263.6
							C2275.525,1767.11,2358.667,1741.678,2428.175,1593.635z"/>
					</g>
					<g>
						<path style="fill:#FF699D;" d="M2125.575,666.769c-133.769-189.828-173.175-134.894-235.3,74.738
							C1890.275,741.508,2008.909,670.416,2125.575,666.769z"/>
					</g>
					<g style="opacity:0.6;">
						<path style="fill:#F5F5F5;" d="M1768.902,2393.605l-57.107-23.796c66.092,50.477,138.366,103.803,178.479,174.998
							c44.397,78.799,52.165,178.782,29.313,305.533c0,0,40.54,6.122,36.676,0s-6.17-270.185-6.17-270.185l-55.115-97.554"/>
					</g>
					<g>
						<path style="fill:#000072;" d="M1890.279,757.912c-3.566,0-7.117-1.16-10.06-3.445c-5.341-4.143-7.596-11.138-5.675-17.62
							c37.86-127.756,65.978-194.084,114.591-202.075c40.399-6.633,83.832,28.862,149.85,122.546
							c3.477,4.934,3.964,11.377,1.27,16.775c-2.695,5.4-8.136,8.884-14.167,9.075c-110.887,3.464-226.234,71.726-227.385,72.417
							C1896.097,757.143,1893.183,757.912,1890.279,757.912z M1998.325,566.843c-1.327,0-2.615,0.103-3.868,0.308
							c-29.192,4.797-54.762,70.369-77.002,141.313c39.408-19.307,106.669-47.473,177.623-55.828
							C2052.059,595.041,2020.241,566.843,1998.325,566.843z"/>
					</g>
					<g>
						<path style="fill:#000072;" d="M2804.826,1211.818c-2.664,0-5.366-0.649-7.867-2.019c-7.947-4.353-10.859-14.324-6.506-22.271
							c111.444-203.452,147.394-307.615,120.205-348.288c-26.556-39.729-127.338-28.726-266.821-13.489l-9.277,1.013
							c-9.014,0.981-17.106-5.523-18.088-14.529c-0.981-9.009,5.524-17.107,14.531-18.088l9.272-1.013
							c156.593-17.102,260.05-28.403,297.662,27.871c36.338,54.363,4.165,157.974-118.707,382.285
							C2816.247,1208.737,2810.626,1211.818,2804.826,1211.818z"/>
					</g>
					<g>
						<path style="fill:#000072;" d="M2787.318,1104.257c-2.59,0-5.219-0.615-7.667-1.912c-8.007-4.241-11.058-14.17-6.816-22.178
							l11.442-21.55c36.367-68.413,70.715-133.032,60.126-147.322c-8.147-10.989-51.967-8.784-130.244,6.545
							c-8.885,1.726-17.513-4.058-19.253-12.949c-1.742-8.892,4.055-17.512,12.947-19.253
							c103.405-20.247,144.513-18.706,162.911,6.121c22.926,30.935-3.956,81.506-57.513,182.258l-11.421,21.511
							C2798.884,1101.088,2793.198,1104.257,2787.318,1104.257z"/>
					</g>
					<g>
						<path style="fill:#000072;" d="M2676.827,1562.656c2.388-0.684,3.944-1.03,5.814-1.443c1.794-0.398,3.561-0.74,5.319-1.062
							c3.519-0.645,7.007-1.162,10.491-1.611c6.966-0.869,13.912-1.394,20.846-1.653c13.866-0.437,27.686,0.32,41.308,2.205
							c27.236,3.794,53.649,12.209,77.692,24.7c24.032,12.512,45.795,28.73,64.553,47.559c18.86,18.748,35.069,39.746,48.929,61.987
							c0.799,1.282,0.407,2.971-0.875,3.77c-1.211,0.754-2.792,0.437-3.637-0.681c-15.536-20.662-33.121-39.663-52.701-55.977
							c-19.486-16.414-41.265-29.751-64.339-39.304c-23.094-9.529-47.591-14.949-72.119-16.199
							c-12.264-0.61-24.543-0.193-36.617,1.255c-6.031,0.759-12.012,1.75-17.876,3.01c-2.925,0.645-5.827,1.34-8.653,2.122
							c-1.414,0.391-2.813,0.791-4.163,1.221c-1.279,0.393-2.853,0.928-3.566,1.223c-8.396,3.459-18.006-0.542-21.467-8.938
							c-3.46-8.394,0.541-18.005,8.936-21.465c0.568-0.234,1.142-0.435,1.719-0.601L2676.827,1562.656z"/>
					</g>
					<g>
						<path style="fill:#000072;" d="M2665.711,1653.542c2.373,0.757,3.886,1.418,5.654,2.107c1.776,0.667,3.333,1.431,4.961,2.166
							c3.28,1.426,6.389,3.025,9.441,4.678c3.117,1.57,6.121,3.284,9.023,5.127c2.904,1.843,5.952,3.472,8.712,5.493
							c5.581,3.958,11.258,7.747,16.383,12.219l7.845,6.472l7.306,7.036c19.396,18.813,35.081,40.796,47.516,64.109l8.441,17.896
							c0.685,1.494,1.429,2.961,2.064,4.475l1.671,4.636l3.328,9.255c4.92,12.166,7.649,24.963,10.928,37.52
							c1.865,6.23,2.489,12.725,3.612,19.094l3.053,19.131c1.151,12.849,1.899,25.706,2.854,38.481
							c0.112,1.501-1.015,2.81-2.518,2.922c-1.417,0.107-2.661-0.889-2.893-2.263l-0.042-0.256
							c-2.078-12.529-3.938-25.049-6.169-37.449l-4.64-18.325c-1.641-6.067-2.779-12.258-5.128-18.098
							c-4.25-11.79-7.908-23.743-13.618-34.824l-3.909-8.44l-1.948-4.211c-0.723-1.367-1.551-2.678-2.32-4.019l-9.343-15.955
							c-13.471-20.554-29.527-39.153-48.215-54.28l-6.996-5.649l-7.413-5.051c-4.819-3.533-10.07-6.343-15.168-9.338
							c-2.527-1.548-5.26-2.664-7.865-4.019c-2.613-1.36-5.267-2.573-7.963-3.628c-2.672-1.155-5.34-2.241-8.01-3.113
							c-1.326-0.459-2.684-0.991-3.938-1.318c-1.24-0.359-2.712-0.82-3.403-0.945c-8.95-1.604-14.905-10.159-13.301-19.109
							s10.16-14.905,19.11-13.301c0.684,0.122,1.351,0.286,1.998,0.486L2665.711,1653.542z"/>
					</g>
					<g>
						<path style="fill:#000072;" d="M1672.808,1235.908c-0.877-0.732-2.262-1.729-3.519-2.656
							c-1.237-0.947-2.612-1.863-3.967-2.786c-2.676-1.873-5.432-3.689-8.291-5.425c-5.563-3.64-11.519-6.804-17.341-10.168
							c-11.948-6.235-24.175-12.144-36.839-17.1c-12.598-5.139-25.585-9.346-38.71-13.159l-19.892-5.105l-20.218-3.813
							c-6.729-1.497-13.596-1.907-20.423-2.803c-6.84-0.745-13.683-1.809-20.581-1.873l-20.711-0.876
							c-6.913-0.105-13.82,0.383-20.753,0.542c-13.915-0.022-27.638,2.244-41.51,3.657l-5.198,0.591
							c-1.72,0.266-3.419,0.649-5.13,0.972l-10.263,2.012l-20.585,4.033l-0.216,0.044c-1.479,0.288-2.914-0.676-3.204-2.156
							c-0.275-1.401,0.588-2.766,1.938-3.152l20.446-5.762l10.253-2.886c1.713-0.466,3.415-0.996,5.141-1.409l5.223-1.03
							c13.954-2.585,27.86-6.03,42.103-7.178c7.094-0.745,14.189-1.814,21.324-2.285l21.473-0.837c7.18-0.5,14.34,0.01,21.526,0.21
							c7.174,0.349,14.413,0.222,21.55,1.196l21.522,2.285l21.37,3.667c14.169,2.891,28.309,6.243,42.18,10.623
							c13.932,4.194,27.563,9.443,41.06,15.166c6.645,3.135,13.38,6.06,19.916,9.6c3.3,1.66,6.576,3.452,9.834,5.354
							c1.633,0.93,3.263,1.838,4.919,2.893c1.661,1.033,3.221,1.956,5.18,3.303l0.219,0.149c7.476,5.144,9.368,15.371,4.226,22.847
							c-5.142,7.476-15.371,9.368-22.847,4.226C1673.601,1236.536,1673.186,1236.221,1672.808,1235.908z"/>
					</g>
					<g>
						<path style="fill:#000072;" d="M1520.354,1414.16c-8.154,0-15.221-6.074-16.259-14.373
							c-1.124-8.992,5.254-17.192,14.244-18.315l116.665-14.585c8.971-1.13,17.19,5.254,18.314,14.243
							c1.124,8.992-5.254,17.192-14.244,18.315l-116.665,14.585C1521.719,1414.116,1521.032,1414.16,1520.354,1414.16z"/>
					</g>
					<g>
						<path style="fill:#000072;" d="M1883.466,3106.501c-34.116,0-72.694-8.625-112.123-28.64
							c-127.08-64.507-128.933-139.119-130.726-211.274c-0.383-15.449-0.78-31.426-2.442-47.163
							c-1.536-14.561-1.865-26.526-2.155-37.082c-1.379-50.212-1.796-65.369-172.789-201.309
							c-87.499-69.563-131.248-169.983-126.517-290.408c3.242-82.517,29.948-163.96,77.23-235.52l91.171-137.986
							c-139.698-114.939-248.544-334.209-274.348-485.161c-18.392-107.593,35.034-152.139,68.518-169.116
							c32.657-16.55,71.866-16.218,104.888,0.886c76.129,39.441,116.831,114.368,149.475,189.46
							c3.613,8.311-0.195,17.974-8.505,21.587c-8.308,3.616-17.975-0.198-21.587-8.506
							c-30.231-69.541-67.445-138.679-134.479-173.406c-23.671-12.266-51.692-12.551-74.955-0.755
							c-45.17,22.901-62.334,68.093-51.012,134.321c25.473,149.019,134.918,367.139,273.976,474.211
							c6.815,5.247,8.42,14.866,3.679,22.041l-99.446,150.51c-43.977,66.56-68.812,142.192-71.82,218.721
							c-4.363,111.116,34.043,199.746,114.152,263.435c175.7,139.683,183.413,162.168,185.169,226.091
							c0.273,9.958,0.583,21.248,1.987,34.541c1.798,17.048,2.212,33.694,2.612,49.79c1.765,71.062,3.159,127.19,112.775,182.832
							c77.51,39.341,155.667,27.896,180.032-7.483c16.658-24.182,5.102-57.195-31.703-90.572c-4.088-3.708-6.039-9.226-5.189-14.68
							c12.988-83.386,36.808-314.556-8.337-381.929c-2.766-4.128-3.512-9.287-2.03-14.028c1.482-4.741,5.034-8.557,9.657-10.374
							c0.933-0.369,95.939-38.708,179.928-136.006c112.271-130.059,152.877-298.467,120.693-500.542
							c-1.425-8.948,4.674-17.358,13.622-18.782c8.95-1.431,17.357,4.673,18.783,13.621
							c42.201,264.978-47.028,433.579-129.31,528.359c-68.586,79.001-142.478,120.571-174.933,136.34
							c43.352,97.732,12.675,331.099,5.63,379.807c44.255,43.33,55.622,90.505,30.212,127.397
							C1973.762,3088.027,1933.392,3106.501,1883.466,3106.501z"/>
					</g>
					<g>
						<path style="fill:#000072;" d="M1936.169,2951.858c0.17,0.259-0.726-0.154-1.116-0.283l-1.771-0.635
							c-1.123-0.486-2.551-0.881-3.801-1.335c-2.623-0.913-5.314-1.743-8.11-2.522c-5.506-1.626-11.303-2.915-17.156-4.033
							c-11.753-2.285-24.052-3.408-36.688-4.026c-12.65-0.576-25.589,0.344-38.796,1.292l-19.965,2.153
							c-6.66,1.04-13.414,2.026-20.386,2.727l-0.173,0.02c-1.536,0.154-2.906-0.967-3.061-2.502
							c-0.107-1.062,0.399-2.046,1.227-2.603c5.834-3.901,11.874-7.551,18.028-11.086c6.322-3.079,12.682-6.338,19.295-9.006
							c6.704-2.378,13.336-5.317,20.382-6.941l10.519-2.837l10.801-1.902c14.486-2.412,29.574-3.018,44.693-0.852
							c7.534,1.274,15.088,2.81,22.473,5.574c3.718,1.194,7.332,2.959,10.976,4.675c1.818,1.018,3.563,1.873,5.411,3.052
							c1.921,1.211,3.311,2.1,5.969,4.146c7.435,5.178,9.265,15.403,4.087,22.839
							C1953.83,2955.205,1943.604,2957.036,1936.169,2951.858z"/>
					</g>
					<g>
						<path style="fill:#000072;" d="M1858.958,3002.402c4.663,5.413,8.107,11.404,10.563,18.242
							c2.397,6.782,3.76,14.329,3.316,22.024c-0.47,7.615-2.083,15.557-5.3,22.651c-1.356,3.777-3.458,6.904-5.281,10.447
							c-2.026,3.274-4.281,6.343-6.522,9.558c-5.28,7.578-15.703,9.441-23.281,4.163c-7.578-5.281-9.441-15.703-4.161-23.281
							c1.113-1.599,2.455-2.942,3.95-4.019l0.809-0.571c2.088-1.489,4.392-2.935,6.505-4.524c1.806-1.716,4.188-3.281,5.757-5.225
							c3.782-3.662,6.453-8.008,8.73-12.83c2.212-4.846,3.268-10.347,3.383-16.123c0.122-5.728-0.959-11.946-2.989-17.434
							l-0.126-0.339c-0.525-1.418,0.2-2.996,1.619-3.521C1857.033,3001.213,1858.232,3001.563,1858.958,3002.402z"/>
					</g>
					<g>
						<path style="fill:#000072;" d="M1932.952,2989.9c4.288,6.191,7.894,12.595,11.206,19.387
							c3.235,6.797,6.174,13.887,8.23,21.511c2.034,7.62,3.484,15.698,3.454,24.387c-0.167,8.684-1.881,17.932-5.906,26.931
							l-0.504,1.128c-3.776,8.442-13.681,12.227-22.124,8.45c-8.443-3.777-12.226-13.682-8.45-22.124
							c0.798-1.785,1.92-3.406,3.193-4.746c3.22-3.362,6.065-7.837,8.072-13.281c1.897-5.496,2.895-11.794,3.276-18.35
							c0.38-6.577-0.121-13.418-1.001-20.288c-0.932-6.841-2.337-13.865-4.316-20.518l-0.039-0.132
							c-0.434-1.458,0.397-2.993,1.856-3.428C1931.07,2988.479,1932.291,2988.95,1932.952,2989.9z"/>
					</g>
					<g>
						<path style="fill:#000072;" d="M1750.783,2382.41c20.948,4.636,40.849,12.278,60.192,21.392
							c19.347,9.119,37.816,20.242,55.429,32.876c17.565,12.705,33.741,27.659,48.227,44.329
							c14.446,16.738,26.282,36.082,34.823,56.78c3.457,8.376-0.532,17.971-8.909,21.428c-7.51,3.098-15.998,0.212-20.165-6.453
							l-0.582-0.935c-10.25-16.365-20.652-32.373-33.138-47.371c-1.422-1.963-3.135-3.713-4.753-5.544l-4.829-5.518l-4.828-5.532
							c-1.652-1.812-3.46-3.496-5.174-5.264c-3.437-3.533-6.743-7.207-10.298-10.659c-3.609-3.406-7.31-6.716-10.857-10.229
							c-29.396-27.026-62.369-51.294-97.149-74.211l-0.112-0.076c-1.276-0.84-1.629-2.556-0.788-3.833
							C1748.522,2382.605,1749.697,2382.173,1750.783,2382.41z"/>
					</g>
					<g>
						<path style="fill:#000072;" d="M1534.576,1899.045l103.712,68.662c1.267,0.837,1.614,2.544,0.775,3.811
							c-0.724,1.094-2.098,1.501-3.274,1.052l-116.209-44.341c-8.517-3.25-12.787-12.788-9.537-21.306
							c3.25-8.516,12.789-12.786,21.306-9.536C1532.478,1897.817,1533.604,1898.411,1534.576,1899.045z"/>
					</g>
					<g>
						
							<ellipse transform="matrix(0.866 -0.5 0.5 0.866 -541.8387 890.8899)" style="fill:#FF7B7B;" cx="1391.518" cy="1456.538" rx="58.447" ry="51.952"/>
					</g>
					<g>
						
							<ellipse transform="matrix(0.8195 -0.5731 0.5731 0.8195 -572.5253 998.1899)" style="fill:#FF7B7B;" cx="1298.209" cy="1407.89" rx="21.191" ry="24.723"/>
					</g>
					<g>
						
							<ellipse transform="matrix(0.9655 -0.2605 0.2605 0.9655 -302.7915 412.2046)" style="fill:#FF7B7B;" cx="1403.693" cy="1348.418" rx="21.191" ry="24.723"/>
					</g>
					<g>
						
							<ellipse transform="matrix(0.9131 -0.4078 0.4078 0.9131 -438.0235 663.9244)" style="fill:#FF7B7B;" cx="1338.386" cy="1359.454" rx="23.029" ry="32.818"/>
					</g>
					<g>
						<path style="fill:#000072;" d="M2329.739,1566.951l-39.812,67.594c-2.352,3.937-4.976,7.765-7.875,11.265
							c-4.321,5.304-9.297,10.007-14.93,13.945c-38.828,27.18-75.522,9.297-87.335-30.133c-4.047-13.507-4.266-27.78-1.367-41.561
							c0.82-3.774,1.914-7.547,3.172-11.211l21.438-62.398l74.374-14.602L2329.739,1566.951z"/>
					</g>
					<g>
						<path style="fill:#000072;" d="M2246.498,1390.45c36.828-13.867,75.859-4.917,117.093,26.85
							c6.802,5.24,8.01,15.308,2.337,21.754c-15.479,17.586-32.798,28.675-52.183,32.474c-11.42,2.238-23.327-0.402-33.026-6.833
							c-18.272-12.115-32.366-30.434-43.07-53.786C2233.969,1402.881,2238.233,1393.563,2246.498,1390.45z"/>
					</g>
					<g>
						<path style="fill:#000072;" d="M2311.027,1455.132c-0.76,12.31-4.322,25.237-11.436,36.411
							c-6.955,11.331-17.612,19.854-28.733,25.608c-11.188,5.879-23.106,8.862-34.843,10.596c-5.91,0.833-11.585,1.265-18.263,0.986
							c-6.444-0.308-12.804-1.677-18.912-3.684c-12.2-4.146-23.153-11.758-31.449-21.541c-4.15-4.905-7.492-10.452-10.064-16.265
							c-2.411-5.903-4.147-11.98-4.782-18.23c-0.658-6.252-0.342-12.668,1.094-18.792c1.467-6.121,4.087-11.86,7.455-16.863
							c6.912-9.998,16.414-16.89,26.341-21.499c1.383-0.642,3.024-0.042,3.667,1.34c0.519,1.118,0.227,2.402-0.634,3.196
							l-0.063,0.056c-3.824,3.508-7.387,7.131-10.461,10.981c-3.002,3.911-5.375,8.113-7.042,12.38
							c-3.409,8.535-3.55,17.437-1.073,25.688c4.723,16.995,19.267,28.774,35.311,32.576c4.001,1.013,8.082,1.68,12.199,1.899
							c3.871,0.137,8.787,0.022,13.355-0.43c9.177-0.82,18.125-2.952,25.755-6.775c7.524-3.953,13.979-9.143,18.086-15.933
							c4.226-6.692,6.637-14.7,7.202-23.452c0.486-7.534,6.989-13.25,14.523-12.764
							C2305.797,1441.113,2311.513,1447.595,2311.027,1455.132z"/>
					</g>
					<g>
						<path style="fill:#FF699D;" d="M2282.052,1645.809c-4.321,5.304-9.297,10.007-14.93,13.945
							c-38.828,27.18-75.522,9.297-87.335-30.133c-4.047-13.507-4.266-27.78-1.367-41.561c1.586-1.204,2.734-2.024,3.226-2.079
							c0,0,85.312-28.71,95.757,55.125L2282.052,1645.809z"/>
					</g>
					<g>
						<path style="fill:#000072;" d="M2289.858,1490.957c7.371,13.11,14.368,26.145,22.848,37.681
							c8.29,11.45,18.37,21.89,29.741,26.067c5.646,2.229,11.413,2.512,17.35,1.14c5.946-1.379,11.847-5.039,17.173-9.78
							c5.316-4.795,10.08-10.679,14.501-16.951c4.366-6.335,8.084-13.228,11.811-20.21l0.047-0.088
							c0.714-1.338,2.378-1.843,3.716-1.13c1.146,0.613,1.68,1.921,1.362,3.125c-4.128,15.615-9.649,31.477-20.634,45.322
							c-5.497,6.814-12.459,13.328-21.578,17.307c-9.037,4.097-19.905,4.919-29.572,2.712c-9.808-2.017-18.388-6.572-25.867-11.848
							c-7.498-5.32-14.105-11.423-19.873-18.054c-11.567-13.252-20.158-28.281-25.974-44.104
							c-2.611-7.102,1.031-14.978,8.135-17.588c6.405-2.354,13.437,0.376,16.672,6.143L2289.858,1490.957z"/>
					</g>
					<g>
						<path style="fill:#000072;" d="M2230.118,1686.454c-6.763,0-13.397-1.096-19.778-3.313
							c-20.421-7.095-36.334-25.168-43.661-49.587c-5.813-19.37-5.131-40.515,1.971-61.152l21.47-62.375
							c2.456-7.136,10.238-10.943,17.377-8.477c7.14,2.458,10.935,10.237,8.478,17.378l-21.47,62.375
							c-5.228,15.188-5.793,30.54-1.637,44.395c4.775,15.911,14.414,27.434,26.447,31.616c11.998,4.17,25.823,1.145,39.972-8.757
							c7.369-5.154,13.721-12.207,18.875-20.959l39.796-67.578c3.831-6.504,12.213-8.674,18.718-4.841
							c6.506,3.83,8.676,12.212,4.844,18.718l-39.796,67.578c-7.157,12.151-16.161,22.073-26.763,29.49
							C2260.321,1681.205,2244.917,1686.454,2230.118,1686.454z"/>
					</g>
					<g style="opacity:0.2;">
						<path style="fill:#000072;" d="M2675.852,1752.886c-46.976,74.484-130.866,161.764-265.887,160.725
							c-232.583-19.578-459.315-95.265-681.781-211.419c-72.898-67.21-136.444-147.545-189.599-242.481
							c-41.015-182.216,24.773-397.847,241.552-660.781l203.873-101.225c-255.825,563.439,46.21,1278.524,691.241,1050.37
							L2675.852,1752.886z"/>
					</g>
					<g style="opacity:0.2;">
						<path style="fill:#000072;" d="M1778.56,3059.125c-123.045-62.453-119.928-131.413-122.006-205.568
							c-0.328-13.179-0.875-26.524-2.297-39.977c-9.406-89.412,28.601-82.85-181.014-249.48
							c-101.061-80.389-123.865-187.521-120.366-276.934c3.227-81.046,29.804-159.468,74.538-227.115l99.475-150.498
							c-91.327-70.327-172.974-190.638-225.474-310.348c-26.469-60.319-45.5-120.529-54.687-174.123
							c-15.75-92.202,23.57-133.381,59.773-151.701c28.219-14.328,61.851-13.726,89.905,0.82c0,0-124.139,59.117-38.5,287.051
							c0,0,117.235,217.764,254.033,314.959c29.08,20.662,34.806,61.454,13.76,90.258c-36.04,49.322-84.481,126.406-111.081,214.119
							c-38.263,126.171,8.065,263.229,115.497,339.659c59.981,42.672,126.801,101.318,128.809,151.915
							c3.664,92.311-78.749,367.112,216.724,297.167C2032.963,3060.164,1907.402,3124.53,1778.56,3059.125z"/>
					</g>
					<g style="opacity:0.2;">
						<path style="fill:#000072;" d="M2208.832,2280.377c-78.695,162.529-214.482,235.536-253.2,253.692
							c-6.781,3.172-10.609,4.649-10.609,4.649c3.117,4.649,5.961,9.953,8.476,15.749l-81.593-103.248l-104.233-69.125
							C1767.673,2382.094,2074.029,2479.546,2208.832,2280.377z"/>
					</g>
					<g>
						<g>
							
								<ellipse transform="matrix(0.1921 -0.9814 0.9814 0.1921 444.6697 3017.6904)" style="fill:#000072;" cx="2055.199" cy="1238.765" rx="120.156" ry="96.239"/>
						</g>
						<g>
							
								<ellipse transform="matrix(0.1808 -0.9835 0.9835 0.1808 511.8549 3058.0151)" style="fill:#FFFFFF;" cx="2091.567" cy="1221.756" rx="47.706" ry="32.364"/>
						</g>
						<g style="opacity:0.35;">
							
								<ellipse transform="matrix(0.9504 -0.3111 0.3111 0.9504 -298.9522 688.4052)" style="fill:#FFFFFF;" cx="2008.725" cy="1281.44" rx="15.965" ry="30.823"/>
						</g>
					</g>
					<g>
						<g>
							
								<ellipse transform="matrix(0.2548 -0.967 0.967 0.2548 527.0928 3510.4031)" style="fill:#000072;" cx="2541.207" cy="1413.207" rx="119.882" ry="90.591"/>
						</g>
						<g>
							
								<ellipse transform="matrix(0.2807 -0.9598 0.9598 0.2807 486.4925 3411.1531)" style="fill:#FFFFFF;" cx="2519.024" cy="1381.009" rx="47.574" ry="30.479"/>
						</g>
						<g style="opacity:0.35;">
							
								<ellipse transform="matrix(0.6904 -0.7234 0.7234 0.6904 -272.9126 2307.8125)" style="fill:#FFFFFF;" cx="2560.038" cy="1472.783" rx="30.03" ry="15.39"/>
						</g>
					</g>
				</g>
				<g>
					<path style="fill:#000072;" d="M2761.087,2083.435c7.277,5.642,13.966,11.736,20.402,18.352
						c6.414,6.609,12.415,13.767,17.792,21.689c5.276,7.981,10.039,16.75,12.848,27.017c2.935,10.115,3.34,22.275-0.464,33.894
						l-0.32,0.977c-2.531,7.732-10.851,11.948-18.582,9.417s-11.946-10.852-9.415-18.582c0.372-1.135,0.911-2.258,1.512-3.232
						c3.027-4.836,4.796-11.128,4.398-18.459c-0.24-7.285-2.308-15.176-5.26-22.915c-3.039-7.739-6.958-15.413-11.492-22.808
						c-4.52-7.378-9.619-14.653-15.147-21.345l-0.071-0.088c-0.965-1.167-0.8-2.898,0.369-3.862
						C2758.667,2082.656,2760.095,2082.666,2761.087,2083.435z"/>
				</g>
			</g>
		</g>
		<g>
			<g>
				<path style="fill:#FFFFFF;" d="M1265.747,916.495c22.344-36.557,33.361-80.441,28.647-126.351
					c-11.441-111.433-111.05-192.492-222.483-181.05c-111.433,11.441-192.492,111.05-181.05,222.483
					c11.441,111.432,111.05,192.491,222.483,181.05c30.995-3.182,59.628-13.204,84.586-28.386l93.863,21.05L1265.747,916.495z"/>
			</g>
			<g style="opacity:0.5;">
				<g>
					<path style="fill:#FFFFFF;" d="M1075.896,647.899c104.094-10.688,197.846,59.351,219.073,159.455
						c0.025-7.15-0.283-14.364-1.03-21.638c-11.441-111.433-111.049-192.492-222.482-181.05
						c-111.433,11.441-192.492,111.05-181.05,222.483c0.75,7.305,1.9,14.47,3.386,21.497
						C894.185,746.273,971.768,658.59,1075.896,647.899z"/>
				</g>
			</g>
			<g>
				<path style="fill:#000072;" d="M1092.463,1031.54c-111.643,0.01-207.703-84.719-219.348-198.142
					c-6.021-58.633,11.152-116.104,48.357-161.821c37.203-45.718,89.983-74.209,148.617-80.229
					c121.045-12.395,229.625,75.935,242.052,196.975c4.7,45.764-4.662,90.723-27.103,130.552l23.875,81.394
					c1.779,6.062,0.217,12.612-4.103,17.222c-4.319,4.609-10.76,6.592-16.92,5.207l-87.006-19.512
					c-26.433,14.922-55.232,24.06-85.718,27.188C1107.55,1031.157,1099.96,1031.537,1092.463,1031.54z M1092.766,625.864
					c-6.292,0-12.642,0.32-19.032,0.977c-49.154,5.046-93.4,28.933-124.587,67.258s-45.585,86.501-40.538,135.657
					c10.419,101.467,101.473,175.557,202.914,165.125c27.613-2.834,53.566-11.543,77.136-25.881c3.947-2.4,8.667-3.184,13.176-2.166
					l64.316,14.424l-17.522-59.739c-1.416-4.829-0.727-10.032,1.897-14.326c21.257-34.78,30.29-74.626,26.122-115.227
					C1266.884,696.889,1186.35,625.864,1092.766,625.864z"/>
			</g>
			<g style="opacity:0.3;">
				<path style="fill:#000072;" d="M1266.886,914.547c-55.555,46.99-132.09,67.568-208.092,48.652
					c-84.287-20.978-146.39-85.162-168.728-163.059c-0.534,10.329-0.294,20.828,0.795,31.436
					c11.441,111.433,111.05,192.491,222.483,181.05c30.995-3.182,59.627-13.204,84.586-28.386l93.863,21.05l-26.045-88.796
					C1266.14,915.853,1266.501,915.193,1266.886,914.547z"/>
			</g>
			<g>
				<path style="fill:#FF0068;" d="M1157.484,753.905L1157.484,753.905c-17.553-17.553-46.012-14.408-63.565,3.145l-2.732,2.732
					l-2.732-2.732c-17.553-17.553-46.012-20.698-63.565-3.145l0,0c-17.553,17.553-17.553,46.012,0,63.565l2.732,2.732l55.186,55.186
					c4.627,4.628,12.13,4.628,16.758,0l55.186-55.186l2.732-2.732C1175.037,799.917,1175.037,771.458,1157.484,753.905z"/>
			</g>
		</g>
	</g>
</g>
</svg>
